G75*
%MOIN*%
%OFA0B0*%
%FSLAX25Y25*%
%IPPOS*%
%LPD*%
%AMOC8*
5,1,8,0,0,1.08239X$1,22.5*
%
%ADD10C,0.01600*%
%ADD11C,0.00500*%
%ADD12C,0.00400*%
%ADD13C,0.00000*%
D10*
X0022295Y0002295D02*
X0022295Y0012295D01*
X0012295Y0022295D02*
X0002295Y0022295D01*
X0002182Y0022901D01*
X0002083Y0023509D01*
X0001999Y0024119D01*
X0001929Y0024731D01*
X0001875Y0025345D01*
X0001835Y0025960D01*
X0001810Y0026575D01*
X0001800Y0027191D01*
X0001805Y0027807D01*
X0001825Y0028423D01*
X0001860Y0029038D01*
X0001909Y0029652D01*
X0001974Y0030265D01*
X0002053Y0030876D01*
X0002147Y0031485D01*
X0002255Y0032091D01*
X0002378Y0032695D01*
X0002516Y0033296D01*
X0002668Y0033893D01*
X0002835Y0034486D01*
X0003016Y0035075D01*
X0003211Y0035659D01*
X0003420Y0036239D01*
X0003643Y0036813D01*
X0003880Y0037382D01*
X0004131Y0037945D01*
X0004395Y0038501D01*
X0004672Y0039051D01*
X0004963Y0039594D01*
X0005267Y0040130D01*
X0005583Y0040659D01*
X0005913Y0041180D01*
X0006254Y0041692D01*
X0006608Y0042197D01*
X0006974Y0042692D01*
X0007352Y0043179D01*
X0007742Y0043656D01*
X0008143Y0044124D01*
X0008555Y0044581D01*
X0008979Y0045029D01*
X0009412Y0045467D01*
X0009857Y0045893D01*
X0010311Y0046309D01*
X0010776Y0046714D01*
X0011250Y0047108D01*
X0011733Y0047490D01*
X0012226Y0047860D01*
X0012727Y0048218D01*
X0013237Y0048564D01*
X0013755Y0048897D01*
X0014281Y0049218D01*
X0014814Y0049526D01*
X0015355Y0049821D01*
X0015903Y0050103D01*
X0016457Y0050372D01*
X0017018Y0050627D01*
X0017585Y0050869D01*
X0018157Y0051096D01*
X0018735Y0051310D01*
X0019318Y0051510D01*
X0019906Y0051696D01*
X0020497Y0051867D01*
X0021093Y0052024D01*
X0021692Y0052167D01*
X0022295Y0052295D01*
X0132295Y0162295D01*
X0132295Y0382295D01*
X0022295Y0492295D01*
X0012295Y0522296D02*
X0012163Y0521913D01*
X0012040Y0521527D01*
X0011927Y0521138D01*
X0011823Y0520746D01*
X0011729Y0520352D01*
X0011644Y0519956D01*
X0011569Y0519557D01*
X0011504Y0519158D01*
X0011449Y0518756D01*
X0011403Y0518354D01*
X0011368Y0517950D01*
X0011342Y0517546D01*
X0011326Y0517141D01*
X0011320Y0516736D01*
X0011324Y0516330D01*
X0011338Y0515925D01*
X0011362Y0515521D01*
X0011395Y0515117D01*
X0011439Y0514714D01*
X0011492Y0514313D01*
X0011555Y0513913D01*
X0011628Y0513514D01*
X0011710Y0513117D01*
X0011803Y0512723D01*
X0011905Y0512331D01*
X0012016Y0511941D01*
X0012137Y0511554D01*
X0012267Y0511171D01*
X0012407Y0510790D01*
X0012556Y0510414D01*
X0012714Y0510040D01*
X0012881Y0509671D01*
X0013057Y0509306D01*
X0013242Y0508946D01*
X0013436Y0508590D01*
X0013638Y0508239D01*
X0013849Y0507893D01*
X0014068Y0507552D01*
X0014296Y0507217D01*
X0014532Y0506888D01*
X0014775Y0506564D01*
X0015027Y0506246D01*
X0015286Y0505935D01*
X0015553Y0505630D01*
X0015827Y0505331D01*
X0016108Y0505040D01*
X0016396Y0504755D01*
X0016692Y0504478D01*
X0016994Y0504207D01*
X0017302Y0503945D01*
X0017617Y0503690D01*
X0017938Y0503442D01*
X0018265Y0503203D01*
X0018597Y0502971D01*
X0018935Y0502748D01*
X0019279Y0502533D01*
X0019627Y0502327D01*
X0019981Y0502129D01*
X0020339Y0501940D01*
X0020702Y0501760D01*
X0021069Y0501588D01*
X0021441Y0501426D01*
X0021816Y0501273D01*
X0022194Y0501129D01*
X0022577Y0500994D01*
X0022962Y0500869D01*
X0023350Y0500753D01*
X0023741Y0500646D01*
X0024135Y0500550D01*
X0024530Y0500462D01*
X0024928Y0500385D01*
X0025327Y0500317D01*
X0025728Y0500259D01*
X0026131Y0500211D01*
X0026534Y0500173D01*
X0026938Y0500145D01*
X0027343Y0500126D01*
X0027748Y0500118D01*
X0028153Y0500119D01*
X0028558Y0500130D01*
X0028963Y0500151D01*
X0029367Y0500182D01*
X0029770Y0500223D01*
X0030172Y0500274D01*
X0030573Y0500334D01*
X0030972Y0500405D01*
X0031369Y0500485D01*
X0031764Y0500574D01*
X0032157Y0500674D01*
X0032547Y0500783D01*
X0032935Y0500901D01*
X0033319Y0501029D01*
X0033700Y0501166D01*
X0034078Y0501312D01*
X0034452Y0501468D01*
X0034822Y0501633D01*
X0035188Y0501807D01*
X0035550Y0501989D01*
X0035907Y0502181D01*
X0036259Y0502381D01*
X0036607Y0502589D01*
X0036949Y0502807D01*
X0037286Y0503032D01*
X0037617Y0503265D01*
X0037942Y0503507D01*
X0038261Y0503756D01*
X0038574Y0504014D01*
X0038881Y0504278D01*
X0039181Y0504551D01*
X0039475Y0504830D01*
X0039761Y0505116D01*
X0040040Y0505410D01*
X0040313Y0505710D01*
X0040577Y0506017D01*
X0040835Y0506330D01*
X0041084Y0506649D01*
X0041326Y0506974D01*
X0041559Y0507305D01*
X0041784Y0507642D01*
X0042002Y0507984D01*
X0042210Y0508332D01*
X0042410Y0508684D01*
X0042602Y0509041D01*
X0042784Y0509403D01*
X0042958Y0509769D01*
X0043123Y0510139D01*
X0043279Y0510513D01*
X0043425Y0510891D01*
X0043562Y0511272D01*
X0043690Y0511656D01*
X0043808Y0512044D01*
X0043917Y0512434D01*
X0044017Y0512827D01*
X0044106Y0513222D01*
X0044186Y0513619D01*
X0044257Y0514018D01*
X0044317Y0514419D01*
X0044368Y0514821D01*
X0044409Y0515224D01*
X0044440Y0515628D01*
X0044461Y0516033D01*
X0044472Y0516438D01*
X0044473Y0516843D01*
X0044465Y0517248D01*
X0044446Y0517653D01*
X0044418Y0518057D01*
X0044380Y0518460D01*
X0044332Y0518863D01*
X0044274Y0519264D01*
X0044206Y0519663D01*
X0044129Y0520061D01*
X0044041Y0520456D01*
X0043945Y0520850D01*
X0043838Y0521241D01*
X0043722Y0521629D01*
X0043597Y0522014D01*
X0043462Y0522397D01*
X0043318Y0522775D01*
X0043165Y0523150D01*
X0043003Y0523522D01*
X0042831Y0523889D01*
X0042651Y0524252D01*
X0042462Y0524610D01*
X0042264Y0524964D01*
X0042058Y0525312D01*
X0041843Y0525656D01*
X0041620Y0525994D01*
X0041388Y0526326D01*
X0041149Y0526653D01*
X0040901Y0526974D01*
X0040646Y0527289D01*
X0040384Y0527597D01*
X0040113Y0527899D01*
X0039836Y0528195D01*
X0039551Y0528483D01*
X0039260Y0528764D01*
X0038961Y0529038D01*
X0038656Y0529305D01*
X0038345Y0529564D01*
X0038027Y0529816D01*
X0037703Y0530059D01*
X0037374Y0530295D01*
X0037039Y0530523D01*
X0036698Y0530742D01*
X0036352Y0530953D01*
X0036001Y0531155D01*
X0035645Y0531349D01*
X0035285Y0531534D01*
X0034920Y0531710D01*
X0034551Y0531877D01*
X0034177Y0532035D01*
X0033801Y0532184D01*
X0033420Y0532324D01*
X0033037Y0532454D01*
X0032650Y0532575D01*
X0032260Y0532686D01*
X0031868Y0532788D01*
X0031474Y0532881D01*
X0031077Y0532963D01*
X0030678Y0533036D01*
X0030278Y0533099D01*
X0029877Y0533152D01*
X0029474Y0533196D01*
X0029070Y0533229D01*
X0028666Y0533253D01*
X0028261Y0533267D01*
X0027855Y0533271D01*
X0027450Y0533265D01*
X0027045Y0533249D01*
X0026641Y0533223D01*
X0026237Y0533188D01*
X0025835Y0533142D01*
X0025433Y0533087D01*
X0025034Y0533022D01*
X0024635Y0532947D01*
X0024239Y0532862D01*
X0023845Y0532768D01*
X0023453Y0532664D01*
X0023064Y0532551D01*
X0022678Y0532428D01*
X0022295Y0532296D01*
X0022295Y0532295D02*
X0022295Y0542295D01*
X0012295Y0522295D02*
X0002295Y0522295D01*
X0002182Y0521689D01*
X0002083Y0521081D01*
X0001999Y0520471D01*
X0001929Y0519859D01*
X0001875Y0519245D01*
X0001835Y0518630D01*
X0001810Y0518015D01*
X0001800Y0517399D01*
X0001805Y0516783D01*
X0001825Y0516167D01*
X0001860Y0515552D01*
X0001909Y0514938D01*
X0001974Y0514325D01*
X0002053Y0513714D01*
X0002147Y0513105D01*
X0002255Y0512499D01*
X0002378Y0511895D01*
X0002516Y0511294D01*
X0002668Y0510697D01*
X0002835Y0510104D01*
X0003016Y0509515D01*
X0003211Y0508931D01*
X0003420Y0508351D01*
X0003643Y0507777D01*
X0003880Y0507208D01*
X0004131Y0506645D01*
X0004395Y0506089D01*
X0004672Y0505539D01*
X0004963Y0504996D01*
X0005267Y0504460D01*
X0005583Y0503931D01*
X0005913Y0503410D01*
X0006254Y0502898D01*
X0006608Y0502393D01*
X0006974Y0501898D01*
X0007352Y0501411D01*
X0007742Y0500934D01*
X0008143Y0500466D01*
X0008555Y0500009D01*
X0008979Y0499561D01*
X0009412Y0499123D01*
X0009857Y0498697D01*
X0010311Y0498281D01*
X0010776Y0497876D01*
X0011250Y0497482D01*
X0011733Y0497100D01*
X0012226Y0496730D01*
X0012727Y0496372D01*
X0013237Y0496026D01*
X0013755Y0495693D01*
X0014281Y0495372D01*
X0014814Y0495064D01*
X0015355Y0494769D01*
X0015903Y0494487D01*
X0016457Y0494218D01*
X0017018Y0493963D01*
X0017585Y0493721D01*
X0018157Y0493494D01*
X0018735Y0493280D01*
X0019318Y0493080D01*
X0019906Y0492894D01*
X0020497Y0492723D01*
X0021093Y0492566D01*
X0021692Y0492423D01*
X0022295Y0492295D01*
X0052295Y0522295D02*
X0052167Y0522898D01*
X0052024Y0523497D01*
X0051867Y0524093D01*
X0051696Y0524684D01*
X0051510Y0525272D01*
X0051310Y0525855D01*
X0051096Y0526433D01*
X0050869Y0527005D01*
X0050627Y0527572D01*
X0050372Y0528133D01*
X0050103Y0528687D01*
X0049821Y0529235D01*
X0049526Y0529776D01*
X0049218Y0530309D01*
X0048897Y0530835D01*
X0048564Y0531353D01*
X0048218Y0531863D01*
X0047860Y0532364D01*
X0047490Y0532857D01*
X0047108Y0533340D01*
X0046714Y0533814D01*
X0046309Y0534279D01*
X0045893Y0534733D01*
X0045467Y0535178D01*
X0045029Y0535611D01*
X0044581Y0536035D01*
X0044124Y0536447D01*
X0043656Y0536848D01*
X0043179Y0537238D01*
X0042692Y0537616D01*
X0042197Y0537982D01*
X0041692Y0538336D01*
X0041180Y0538677D01*
X0040659Y0539007D01*
X0040130Y0539323D01*
X0039594Y0539627D01*
X0039051Y0539918D01*
X0038501Y0540195D01*
X0037945Y0540459D01*
X0037382Y0540710D01*
X0036813Y0540947D01*
X0036239Y0541170D01*
X0035659Y0541379D01*
X0035075Y0541574D01*
X0034486Y0541755D01*
X0033893Y0541922D01*
X0033296Y0542074D01*
X0032695Y0542212D01*
X0032091Y0542335D01*
X0031485Y0542443D01*
X0030876Y0542537D01*
X0030265Y0542616D01*
X0029652Y0542681D01*
X0029038Y0542730D01*
X0028423Y0542765D01*
X0027807Y0542785D01*
X0027191Y0542790D01*
X0026575Y0542780D01*
X0025960Y0542755D01*
X0025345Y0542715D01*
X0024731Y0542661D01*
X0024119Y0542591D01*
X0023509Y0542507D01*
X0022901Y0542408D01*
X0022295Y0542295D01*
X0052295Y0522295D02*
X0162295Y0412295D01*
X0382295Y0412295D01*
X0492295Y0522295D01*
X0522296Y0532296D02*
X0521913Y0532428D01*
X0521527Y0532551D01*
X0521138Y0532664D01*
X0520746Y0532768D01*
X0520352Y0532862D01*
X0519956Y0532947D01*
X0519557Y0533022D01*
X0519158Y0533087D01*
X0518756Y0533142D01*
X0518354Y0533188D01*
X0517950Y0533223D01*
X0517546Y0533249D01*
X0517141Y0533265D01*
X0516736Y0533271D01*
X0516330Y0533267D01*
X0515925Y0533253D01*
X0515521Y0533229D01*
X0515117Y0533196D01*
X0514714Y0533152D01*
X0514313Y0533099D01*
X0513913Y0533036D01*
X0513514Y0532963D01*
X0513117Y0532881D01*
X0512723Y0532788D01*
X0512331Y0532686D01*
X0511941Y0532575D01*
X0511554Y0532454D01*
X0511171Y0532324D01*
X0510790Y0532184D01*
X0510414Y0532035D01*
X0510040Y0531877D01*
X0509671Y0531710D01*
X0509306Y0531534D01*
X0508946Y0531349D01*
X0508590Y0531155D01*
X0508239Y0530953D01*
X0507893Y0530742D01*
X0507552Y0530523D01*
X0507217Y0530295D01*
X0506888Y0530059D01*
X0506564Y0529816D01*
X0506246Y0529564D01*
X0505935Y0529305D01*
X0505630Y0529038D01*
X0505331Y0528764D01*
X0505040Y0528483D01*
X0504755Y0528195D01*
X0504478Y0527899D01*
X0504207Y0527597D01*
X0503945Y0527289D01*
X0503690Y0526974D01*
X0503442Y0526653D01*
X0503203Y0526326D01*
X0502971Y0525994D01*
X0502748Y0525656D01*
X0502533Y0525312D01*
X0502327Y0524964D01*
X0502129Y0524610D01*
X0501940Y0524252D01*
X0501760Y0523889D01*
X0501588Y0523522D01*
X0501426Y0523150D01*
X0501273Y0522775D01*
X0501129Y0522397D01*
X0500994Y0522014D01*
X0500869Y0521629D01*
X0500753Y0521241D01*
X0500646Y0520850D01*
X0500550Y0520456D01*
X0500462Y0520061D01*
X0500385Y0519663D01*
X0500317Y0519264D01*
X0500259Y0518863D01*
X0500211Y0518460D01*
X0500173Y0518057D01*
X0500145Y0517653D01*
X0500126Y0517248D01*
X0500118Y0516843D01*
X0500119Y0516438D01*
X0500130Y0516033D01*
X0500151Y0515628D01*
X0500182Y0515224D01*
X0500223Y0514821D01*
X0500274Y0514419D01*
X0500334Y0514018D01*
X0500405Y0513619D01*
X0500485Y0513222D01*
X0500574Y0512827D01*
X0500674Y0512434D01*
X0500783Y0512044D01*
X0500901Y0511656D01*
X0501029Y0511272D01*
X0501166Y0510891D01*
X0501312Y0510513D01*
X0501468Y0510139D01*
X0501633Y0509769D01*
X0501807Y0509403D01*
X0501989Y0509041D01*
X0502181Y0508684D01*
X0502381Y0508332D01*
X0502589Y0507984D01*
X0502807Y0507642D01*
X0503032Y0507305D01*
X0503265Y0506974D01*
X0503507Y0506649D01*
X0503756Y0506330D01*
X0504014Y0506017D01*
X0504278Y0505710D01*
X0504551Y0505410D01*
X0504830Y0505116D01*
X0505116Y0504830D01*
X0505410Y0504551D01*
X0505710Y0504278D01*
X0506017Y0504014D01*
X0506330Y0503756D01*
X0506649Y0503507D01*
X0506974Y0503265D01*
X0507305Y0503032D01*
X0507642Y0502807D01*
X0507984Y0502589D01*
X0508332Y0502381D01*
X0508684Y0502181D01*
X0509041Y0501989D01*
X0509403Y0501807D01*
X0509769Y0501633D01*
X0510139Y0501468D01*
X0510513Y0501312D01*
X0510891Y0501166D01*
X0511272Y0501029D01*
X0511656Y0500901D01*
X0512044Y0500783D01*
X0512434Y0500674D01*
X0512827Y0500574D01*
X0513222Y0500485D01*
X0513619Y0500405D01*
X0514018Y0500334D01*
X0514419Y0500274D01*
X0514821Y0500223D01*
X0515224Y0500182D01*
X0515628Y0500151D01*
X0516033Y0500130D01*
X0516438Y0500119D01*
X0516843Y0500118D01*
X0517248Y0500126D01*
X0517653Y0500145D01*
X0518057Y0500173D01*
X0518460Y0500211D01*
X0518863Y0500259D01*
X0519264Y0500317D01*
X0519663Y0500385D01*
X0520061Y0500462D01*
X0520456Y0500550D01*
X0520850Y0500646D01*
X0521241Y0500753D01*
X0521629Y0500869D01*
X0522014Y0500994D01*
X0522397Y0501129D01*
X0522775Y0501273D01*
X0523150Y0501426D01*
X0523522Y0501588D01*
X0523889Y0501760D01*
X0524252Y0501940D01*
X0524610Y0502129D01*
X0524964Y0502327D01*
X0525312Y0502533D01*
X0525656Y0502748D01*
X0525994Y0502971D01*
X0526326Y0503203D01*
X0526653Y0503442D01*
X0526974Y0503690D01*
X0527289Y0503945D01*
X0527597Y0504207D01*
X0527899Y0504478D01*
X0528195Y0504755D01*
X0528483Y0505040D01*
X0528764Y0505331D01*
X0529038Y0505630D01*
X0529305Y0505935D01*
X0529564Y0506246D01*
X0529816Y0506564D01*
X0530059Y0506888D01*
X0530295Y0507217D01*
X0530523Y0507552D01*
X0530742Y0507893D01*
X0530953Y0508239D01*
X0531155Y0508590D01*
X0531349Y0508946D01*
X0531534Y0509306D01*
X0531710Y0509671D01*
X0531877Y0510040D01*
X0532035Y0510414D01*
X0532184Y0510790D01*
X0532324Y0511171D01*
X0532454Y0511554D01*
X0532575Y0511941D01*
X0532686Y0512331D01*
X0532788Y0512723D01*
X0532881Y0513117D01*
X0532963Y0513514D01*
X0533036Y0513913D01*
X0533099Y0514313D01*
X0533152Y0514714D01*
X0533196Y0515117D01*
X0533229Y0515521D01*
X0533253Y0515925D01*
X0533267Y0516330D01*
X0533271Y0516736D01*
X0533265Y0517141D01*
X0533249Y0517546D01*
X0533223Y0517950D01*
X0533188Y0518354D01*
X0533142Y0518756D01*
X0533087Y0519158D01*
X0533022Y0519557D01*
X0532947Y0519956D01*
X0532862Y0520352D01*
X0532768Y0520746D01*
X0532664Y0521138D01*
X0532551Y0521527D01*
X0532428Y0521913D01*
X0532296Y0522296D01*
X0532295Y0522295D02*
X0542295Y0522295D01*
X0522295Y0532295D02*
X0522295Y0542295D01*
X0542295Y0522295D02*
X0542408Y0521689D01*
X0542507Y0521081D01*
X0542591Y0520471D01*
X0542661Y0519859D01*
X0542715Y0519245D01*
X0542755Y0518630D01*
X0542780Y0518015D01*
X0542790Y0517399D01*
X0542785Y0516783D01*
X0542765Y0516167D01*
X0542730Y0515552D01*
X0542681Y0514938D01*
X0542616Y0514325D01*
X0542537Y0513714D01*
X0542443Y0513105D01*
X0542335Y0512499D01*
X0542212Y0511895D01*
X0542074Y0511294D01*
X0541922Y0510697D01*
X0541755Y0510104D01*
X0541574Y0509515D01*
X0541379Y0508931D01*
X0541170Y0508351D01*
X0540947Y0507777D01*
X0540710Y0507208D01*
X0540459Y0506645D01*
X0540195Y0506089D01*
X0539918Y0505539D01*
X0539627Y0504996D01*
X0539323Y0504460D01*
X0539007Y0503931D01*
X0538677Y0503410D01*
X0538336Y0502898D01*
X0537982Y0502393D01*
X0537616Y0501898D01*
X0537238Y0501411D01*
X0536848Y0500934D01*
X0536447Y0500466D01*
X0536035Y0500009D01*
X0535611Y0499561D01*
X0535178Y0499123D01*
X0534733Y0498697D01*
X0534279Y0498281D01*
X0533814Y0497876D01*
X0533340Y0497482D01*
X0532857Y0497100D01*
X0532364Y0496730D01*
X0531863Y0496372D01*
X0531353Y0496026D01*
X0530835Y0495693D01*
X0530309Y0495372D01*
X0529776Y0495064D01*
X0529235Y0494769D01*
X0528687Y0494487D01*
X0528133Y0494218D01*
X0527572Y0493963D01*
X0527005Y0493721D01*
X0526433Y0493494D01*
X0525855Y0493280D01*
X0525272Y0493080D01*
X0524684Y0492894D01*
X0524093Y0492723D01*
X0523497Y0492566D01*
X0522898Y0492423D01*
X0522295Y0492295D01*
X0412295Y0382295D01*
X0412295Y0162295D01*
X0522295Y0052295D01*
X0532296Y0022295D02*
X0532428Y0022678D01*
X0532551Y0023064D01*
X0532664Y0023453D01*
X0532768Y0023845D01*
X0532862Y0024239D01*
X0532947Y0024635D01*
X0533022Y0025034D01*
X0533087Y0025433D01*
X0533142Y0025835D01*
X0533188Y0026237D01*
X0533223Y0026641D01*
X0533249Y0027045D01*
X0533265Y0027450D01*
X0533271Y0027855D01*
X0533267Y0028261D01*
X0533253Y0028666D01*
X0533229Y0029070D01*
X0533196Y0029474D01*
X0533152Y0029877D01*
X0533099Y0030278D01*
X0533036Y0030678D01*
X0532963Y0031077D01*
X0532881Y0031474D01*
X0532788Y0031868D01*
X0532686Y0032260D01*
X0532575Y0032650D01*
X0532454Y0033037D01*
X0532324Y0033420D01*
X0532184Y0033801D01*
X0532035Y0034177D01*
X0531877Y0034551D01*
X0531710Y0034920D01*
X0531534Y0035285D01*
X0531349Y0035645D01*
X0531155Y0036001D01*
X0530953Y0036352D01*
X0530742Y0036698D01*
X0530523Y0037039D01*
X0530295Y0037374D01*
X0530059Y0037703D01*
X0529816Y0038027D01*
X0529564Y0038345D01*
X0529305Y0038656D01*
X0529038Y0038961D01*
X0528764Y0039260D01*
X0528483Y0039551D01*
X0528195Y0039836D01*
X0527899Y0040113D01*
X0527597Y0040384D01*
X0527289Y0040646D01*
X0526974Y0040901D01*
X0526653Y0041149D01*
X0526326Y0041388D01*
X0525994Y0041620D01*
X0525656Y0041843D01*
X0525312Y0042058D01*
X0524964Y0042264D01*
X0524610Y0042462D01*
X0524252Y0042651D01*
X0523889Y0042831D01*
X0523522Y0043003D01*
X0523150Y0043165D01*
X0522775Y0043318D01*
X0522397Y0043462D01*
X0522014Y0043597D01*
X0521629Y0043722D01*
X0521241Y0043838D01*
X0520850Y0043945D01*
X0520456Y0044041D01*
X0520061Y0044129D01*
X0519663Y0044206D01*
X0519264Y0044274D01*
X0518863Y0044332D01*
X0518460Y0044380D01*
X0518057Y0044418D01*
X0517653Y0044446D01*
X0517248Y0044465D01*
X0516843Y0044473D01*
X0516438Y0044472D01*
X0516033Y0044461D01*
X0515628Y0044440D01*
X0515224Y0044409D01*
X0514821Y0044368D01*
X0514419Y0044317D01*
X0514018Y0044257D01*
X0513619Y0044186D01*
X0513222Y0044106D01*
X0512827Y0044017D01*
X0512434Y0043917D01*
X0512044Y0043808D01*
X0511656Y0043690D01*
X0511272Y0043562D01*
X0510891Y0043425D01*
X0510513Y0043279D01*
X0510139Y0043123D01*
X0509769Y0042958D01*
X0509403Y0042784D01*
X0509041Y0042602D01*
X0508684Y0042410D01*
X0508332Y0042210D01*
X0507984Y0042002D01*
X0507642Y0041784D01*
X0507305Y0041559D01*
X0506974Y0041326D01*
X0506649Y0041084D01*
X0506330Y0040835D01*
X0506017Y0040577D01*
X0505710Y0040313D01*
X0505410Y0040040D01*
X0505116Y0039761D01*
X0504830Y0039475D01*
X0504551Y0039181D01*
X0504278Y0038881D01*
X0504014Y0038574D01*
X0503756Y0038261D01*
X0503507Y0037942D01*
X0503265Y0037617D01*
X0503032Y0037286D01*
X0502807Y0036949D01*
X0502589Y0036607D01*
X0502381Y0036259D01*
X0502181Y0035907D01*
X0501989Y0035550D01*
X0501807Y0035188D01*
X0501633Y0034822D01*
X0501468Y0034452D01*
X0501312Y0034078D01*
X0501166Y0033700D01*
X0501029Y0033319D01*
X0500901Y0032935D01*
X0500783Y0032547D01*
X0500674Y0032157D01*
X0500574Y0031764D01*
X0500485Y0031369D01*
X0500405Y0030972D01*
X0500334Y0030573D01*
X0500274Y0030172D01*
X0500223Y0029770D01*
X0500182Y0029367D01*
X0500151Y0028963D01*
X0500130Y0028558D01*
X0500119Y0028153D01*
X0500118Y0027748D01*
X0500126Y0027343D01*
X0500145Y0026938D01*
X0500173Y0026534D01*
X0500211Y0026131D01*
X0500259Y0025728D01*
X0500317Y0025327D01*
X0500385Y0024928D01*
X0500462Y0024530D01*
X0500550Y0024135D01*
X0500646Y0023741D01*
X0500753Y0023350D01*
X0500869Y0022962D01*
X0500994Y0022577D01*
X0501129Y0022194D01*
X0501273Y0021816D01*
X0501426Y0021441D01*
X0501588Y0021069D01*
X0501760Y0020702D01*
X0501940Y0020339D01*
X0502129Y0019981D01*
X0502327Y0019627D01*
X0502533Y0019279D01*
X0502748Y0018935D01*
X0502971Y0018597D01*
X0503203Y0018265D01*
X0503442Y0017938D01*
X0503690Y0017617D01*
X0503945Y0017302D01*
X0504207Y0016994D01*
X0504478Y0016692D01*
X0504755Y0016396D01*
X0505040Y0016108D01*
X0505331Y0015827D01*
X0505630Y0015553D01*
X0505935Y0015286D01*
X0506246Y0015027D01*
X0506564Y0014775D01*
X0506888Y0014532D01*
X0507217Y0014296D01*
X0507552Y0014068D01*
X0507893Y0013849D01*
X0508239Y0013638D01*
X0508590Y0013436D01*
X0508946Y0013242D01*
X0509306Y0013057D01*
X0509671Y0012881D01*
X0510040Y0012714D01*
X0510414Y0012556D01*
X0510790Y0012407D01*
X0511171Y0012267D01*
X0511554Y0012137D01*
X0511941Y0012016D01*
X0512331Y0011905D01*
X0512723Y0011803D01*
X0513117Y0011710D01*
X0513514Y0011628D01*
X0513913Y0011555D01*
X0514313Y0011492D01*
X0514714Y0011439D01*
X0515117Y0011395D01*
X0515521Y0011362D01*
X0515925Y0011338D01*
X0516330Y0011324D01*
X0516736Y0011320D01*
X0517141Y0011326D01*
X0517546Y0011342D01*
X0517950Y0011368D01*
X0518354Y0011403D01*
X0518756Y0011449D01*
X0519158Y0011504D01*
X0519557Y0011569D01*
X0519956Y0011644D01*
X0520352Y0011729D01*
X0520746Y0011823D01*
X0521138Y0011927D01*
X0521527Y0012040D01*
X0521913Y0012163D01*
X0522296Y0012295D01*
X0522295Y0012295D02*
X0522295Y0002295D01*
X0532295Y0022295D02*
X0542295Y0022295D01*
X0542408Y0022901D01*
X0542507Y0023509D01*
X0542591Y0024119D01*
X0542661Y0024731D01*
X0542715Y0025345D01*
X0542755Y0025960D01*
X0542780Y0026575D01*
X0542790Y0027191D01*
X0542785Y0027807D01*
X0542765Y0028423D01*
X0542730Y0029038D01*
X0542681Y0029652D01*
X0542616Y0030265D01*
X0542537Y0030876D01*
X0542443Y0031485D01*
X0542335Y0032091D01*
X0542212Y0032695D01*
X0542074Y0033296D01*
X0541922Y0033893D01*
X0541755Y0034486D01*
X0541574Y0035075D01*
X0541379Y0035659D01*
X0541170Y0036239D01*
X0540947Y0036813D01*
X0540710Y0037382D01*
X0540459Y0037945D01*
X0540195Y0038501D01*
X0539918Y0039051D01*
X0539627Y0039594D01*
X0539323Y0040130D01*
X0539007Y0040659D01*
X0538677Y0041180D01*
X0538336Y0041692D01*
X0537982Y0042197D01*
X0537616Y0042692D01*
X0537238Y0043179D01*
X0536848Y0043656D01*
X0536447Y0044124D01*
X0536035Y0044581D01*
X0535611Y0045029D01*
X0535178Y0045467D01*
X0534733Y0045893D01*
X0534279Y0046309D01*
X0533814Y0046714D01*
X0533340Y0047108D01*
X0532857Y0047490D01*
X0532364Y0047860D01*
X0531863Y0048218D01*
X0531353Y0048564D01*
X0530835Y0048897D01*
X0530309Y0049218D01*
X0529776Y0049526D01*
X0529235Y0049821D01*
X0528687Y0050103D01*
X0528133Y0050372D01*
X0527572Y0050627D01*
X0527005Y0050869D01*
X0526433Y0051096D01*
X0525855Y0051310D01*
X0525272Y0051510D01*
X0524684Y0051696D01*
X0524093Y0051867D01*
X0523497Y0052024D01*
X0522898Y0052167D01*
X0522295Y0052295D01*
X0492295Y0022295D02*
X0492425Y0021683D01*
X0492571Y0021074D01*
X0492731Y0020469D01*
X0492906Y0019869D01*
X0493095Y0019272D01*
X0493299Y0018681D01*
X0493518Y0018095D01*
X0493751Y0017514D01*
X0493998Y0016939D01*
X0494259Y0016370D01*
X0494534Y0015808D01*
X0494823Y0015253D01*
X0495125Y0014705D01*
X0495441Y0014165D01*
X0495770Y0013633D01*
X0496112Y0013109D01*
X0496466Y0012593D01*
X0496833Y0012086D01*
X0497213Y0011589D01*
X0497604Y0011101D01*
X0498007Y0010622D01*
X0498422Y0010154D01*
X0498849Y0009696D01*
X0499286Y0009248D01*
X0499734Y0008812D01*
X0500193Y0008387D01*
X0500663Y0007973D01*
X0501142Y0007570D01*
X0501631Y0007180D01*
X0502129Y0006801D01*
X0502637Y0006435D01*
X0503153Y0006082D01*
X0503678Y0005741D01*
X0504211Y0005414D01*
X0504752Y0005099D01*
X0505300Y0004798D01*
X0505856Y0004510D01*
X0506419Y0004236D01*
X0506988Y0003976D01*
X0507563Y0003730D01*
X0508144Y0003499D01*
X0508731Y0003281D01*
X0509323Y0003078D01*
X0509920Y0002890D01*
X0510521Y0002716D01*
X0511126Y0002558D01*
X0511735Y0002414D01*
X0512347Y0002285D01*
X0512963Y0002171D01*
X0513580Y0002072D01*
X0514201Y0001988D01*
X0514823Y0001920D01*
X0515446Y0001867D01*
X0516071Y0001829D01*
X0516696Y0001807D01*
X0517322Y0001800D01*
X0517947Y0001808D01*
X0518573Y0001832D01*
X0519197Y0001871D01*
X0519820Y0001925D01*
X0520442Y0001995D01*
X0521062Y0002080D01*
X0521680Y0002180D01*
X0522295Y0002295D01*
X0492295Y0022295D02*
X0382295Y0132295D01*
X0162295Y0132295D01*
X0052295Y0022295D01*
X0022295Y0012295D02*
X0022678Y0012163D01*
X0023064Y0012040D01*
X0023453Y0011927D01*
X0023845Y0011823D01*
X0024239Y0011729D01*
X0024635Y0011644D01*
X0025034Y0011569D01*
X0025433Y0011504D01*
X0025835Y0011449D01*
X0026237Y0011403D01*
X0026641Y0011368D01*
X0027045Y0011342D01*
X0027450Y0011326D01*
X0027855Y0011320D01*
X0028261Y0011324D01*
X0028666Y0011338D01*
X0029070Y0011362D01*
X0029474Y0011395D01*
X0029877Y0011439D01*
X0030278Y0011492D01*
X0030678Y0011555D01*
X0031077Y0011628D01*
X0031474Y0011710D01*
X0031868Y0011803D01*
X0032260Y0011905D01*
X0032650Y0012016D01*
X0033037Y0012137D01*
X0033420Y0012267D01*
X0033801Y0012407D01*
X0034177Y0012556D01*
X0034551Y0012714D01*
X0034920Y0012881D01*
X0035285Y0013057D01*
X0035645Y0013242D01*
X0036001Y0013436D01*
X0036352Y0013638D01*
X0036698Y0013849D01*
X0037039Y0014068D01*
X0037374Y0014296D01*
X0037703Y0014532D01*
X0038027Y0014775D01*
X0038345Y0015027D01*
X0038656Y0015286D01*
X0038961Y0015553D01*
X0039260Y0015827D01*
X0039551Y0016108D01*
X0039836Y0016396D01*
X0040113Y0016692D01*
X0040384Y0016994D01*
X0040646Y0017302D01*
X0040901Y0017617D01*
X0041149Y0017938D01*
X0041388Y0018265D01*
X0041620Y0018597D01*
X0041843Y0018935D01*
X0042058Y0019279D01*
X0042264Y0019627D01*
X0042462Y0019981D01*
X0042651Y0020339D01*
X0042831Y0020702D01*
X0043003Y0021069D01*
X0043165Y0021441D01*
X0043318Y0021816D01*
X0043462Y0022194D01*
X0043597Y0022577D01*
X0043722Y0022962D01*
X0043838Y0023350D01*
X0043945Y0023741D01*
X0044041Y0024135D01*
X0044129Y0024530D01*
X0044206Y0024928D01*
X0044274Y0025327D01*
X0044332Y0025728D01*
X0044380Y0026131D01*
X0044418Y0026534D01*
X0044446Y0026938D01*
X0044465Y0027343D01*
X0044473Y0027748D01*
X0044472Y0028153D01*
X0044461Y0028558D01*
X0044440Y0028963D01*
X0044409Y0029367D01*
X0044368Y0029770D01*
X0044317Y0030172D01*
X0044257Y0030573D01*
X0044186Y0030972D01*
X0044106Y0031369D01*
X0044017Y0031764D01*
X0043917Y0032157D01*
X0043808Y0032547D01*
X0043690Y0032935D01*
X0043562Y0033319D01*
X0043425Y0033700D01*
X0043279Y0034078D01*
X0043123Y0034452D01*
X0042958Y0034822D01*
X0042784Y0035188D01*
X0042602Y0035550D01*
X0042410Y0035907D01*
X0042210Y0036259D01*
X0042002Y0036607D01*
X0041784Y0036949D01*
X0041559Y0037286D01*
X0041326Y0037617D01*
X0041084Y0037942D01*
X0040835Y0038261D01*
X0040577Y0038574D01*
X0040313Y0038881D01*
X0040040Y0039181D01*
X0039761Y0039475D01*
X0039475Y0039761D01*
X0039181Y0040040D01*
X0038881Y0040313D01*
X0038574Y0040577D01*
X0038261Y0040835D01*
X0037942Y0041084D01*
X0037617Y0041326D01*
X0037286Y0041559D01*
X0036949Y0041784D01*
X0036607Y0042002D01*
X0036259Y0042210D01*
X0035907Y0042410D01*
X0035550Y0042602D01*
X0035188Y0042784D01*
X0034822Y0042958D01*
X0034452Y0043123D01*
X0034078Y0043279D01*
X0033700Y0043425D01*
X0033319Y0043562D01*
X0032935Y0043690D01*
X0032547Y0043808D01*
X0032157Y0043917D01*
X0031764Y0044017D01*
X0031369Y0044106D01*
X0030972Y0044186D01*
X0030573Y0044257D01*
X0030172Y0044317D01*
X0029770Y0044368D01*
X0029367Y0044409D01*
X0028963Y0044440D01*
X0028558Y0044461D01*
X0028153Y0044472D01*
X0027748Y0044473D01*
X0027343Y0044465D01*
X0026938Y0044446D01*
X0026534Y0044418D01*
X0026131Y0044380D01*
X0025728Y0044332D01*
X0025327Y0044274D01*
X0024928Y0044206D01*
X0024530Y0044129D01*
X0024135Y0044041D01*
X0023741Y0043945D01*
X0023350Y0043838D01*
X0022962Y0043722D01*
X0022577Y0043597D01*
X0022194Y0043462D01*
X0021816Y0043318D01*
X0021441Y0043165D01*
X0021069Y0043003D01*
X0020702Y0042831D01*
X0020339Y0042651D01*
X0019981Y0042462D01*
X0019627Y0042264D01*
X0019279Y0042058D01*
X0018935Y0041843D01*
X0018597Y0041620D01*
X0018265Y0041388D01*
X0017938Y0041149D01*
X0017617Y0040901D01*
X0017302Y0040646D01*
X0016994Y0040384D01*
X0016692Y0040113D01*
X0016396Y0039836D01*
X0016108Y0039551D01*
X0015827Y0039260D01*
X0015553Y0038961D01*
X0015286Y0038656D01*
X0015027Y0038345D01*
X0014775Y0038027D01*
X0014532Y0037703D01*
X0014296Y0037374D01*
X0014068Y0037039D01*
X0013849Y0036698D01*
X0013638Y0036352D01*
X0013436Y0036001D01*
X0013242Y0035645D01*
X0013057Y0035285D01*
X0012881Y0034920D01*
X0012714Y0034551D01*
X0012556Y0034177D01*
X0012407Y0033801D01*
X0012267Y0033420D01*
X0012137Y0033037D01*
X0012016Y0032650D01*
X0011905Y0032260D01*
X0011803Y0031868D01*
X0011710Y0031474D01*
X0011628Y0031077D01*
X0011555Y0030678D01*
X0011492Y0030278D01*
X0011439Y0029877D01*
X0011395Y0029474D01*
X0011362Y0029070D01*
X0011338Y0028666D01*
X0011324Y0028261D01*
X0011320Y0027855D01*
X0011326Y0027450D01*
X0011342Y0027045D01*
X0011368Y0026641D01*
X0011403Y0026237D01*
X0011449Y0025835D01*
X0011504Y0025433D01*
X0011569Y0025034D01*
X0011644Y0024635D01*
X0011729Y0024239D01*
X0011823Y0023845D01*
X0011927Y0023453D01*
X0012040Y0023064D01*
X0012163Y0022678D01*
X0012295Y0022295D01*
X0022295Y0002295D02*
X0022901Y0002182D01*
X0023509Y0002083D01*
X0024119Y0001999D01*
X0024731Y0001929D01*
X0025345Y0001875D01*
X0025960Y0001835D01*
X0026575Y0001810D01*
X0027191Y0001800D01*
X0027807Y0001805D01*
X0028423Y0001825D01*
X0029038Y0001860D01*
X0029652Y0001909D01*
X0030265Y0001974D01*
X0030876Y0002053D01*
X0031485Y0002147D01*
X0032091Y0002255D01*
X0032695Y0002378D01*
X0033296Y0002516D01*
X0033893Y0002668D01*
X0034486Y0002835D01*
X0035075Y0003016D01*
X0035659Y0003211D01*
X0036239Y0003420D01*
X0036813Y0003643D01*
X0037382Y0003880D01*
X0037945Y0004131D01*
X0038501Y0004395D01*
X0039051Y0004672D01*
X0039594Y0004963D01*
X0040130Y0005267D01*
X0040659Y0005583D01*
X0041180Y0005913D01*
X0041692Y0006254D01*
X0042197Y0006608D01*
X0042692Y0006974D01*
X0043179Y0007352D01*
X0043656Y0007742D01*
X0044124Y0008143D01*
X0044581Y0008555D01*
X0045029Y0008979D01*
X0045467Y0009412D01*
X0045893Y0009857D01*
X0046309Y0010311D01*
X0046714Y0010776D01*
X0047108Y0011250D01*
X0047490Y0011733D01*
X0047860Y0012226D01*
X0048218Y0012727D01*
X0048564Y0013237D01*
X0048897Y0013755D01*
X0049218Y0014281D01*
X0049526Y0014814D01*
X0049821Y0015355D01*
X0050103Y0015903D01*
X0050372Y0016457D01*
X0050627Y0017018D01*
X0050869Y0017585D01*
X0051096Y0018157D01*
X0051310Y0018735D01*
X0051510Y0019318D01*
X0051696Y0019906D01*
X0051867Y0020497D01*
X0052024Y0021093D01*
X0052167Y0021692D01*
X0052295Y0022295D01*
X0492295Y0522295D02*
X0492425Y0522907D01*
X0492571Y0523516D01*
X0492731Y0524121D01*
X0492906Y0524721D01*
X0493095Y0525318D01*
X0493299Y0525909D01*
X0493518Y0526495D01*
X0493751Y0527076D01*
X0493998Y0527651D01*
X0494259Y0528220D01*
X0494534Y0528782D01*
X0494823Y0529337D01*
X0495125Y0529885D01*
X0495441Y0530425D01*
X0495770Y0530957D01*
X0496112Y0531481D01*
X0496466Y0531997D01*
X0496833Y0532504D01*
X0497213Y0533001D01*
X0497604Y0533489D01*
X0498007Y0533968D01*
X0498422Y0534436D01*
X0498849Y0534894D01*
X0499286Y0535342D01*
X0499734Y0535778D01*
X0500193Y0536203D01*
X0500663Y0536617D01*
X0501142Y0537020D01*
X0501631Y0537410D01*
X0502129Y0537789D01*
X0502637Y0538155D01*
X0503153Y0538508D01*
X0503678Y0538849D01*
X0504211Y0539176D01*
X0504752Y0539491D01*
X0505300Y0539792D01*
X0505856Y0540080D01*
X0506419Y0540354D01*
X0506988Y0540614D01*
X0507563Y0540860D01*
X0508144Y0541091D01*
X0508731Y0541309D01*
X0509323Y0541512D01*
X0509920Y0541700D01*
X0510521Y0541874D01*
X0511126Y0542032D01*
X0511735Y0542176D01*
X0512347Y0542305D01*
X0512963Y0542419D01*
X0513580Y0542518D01*
X0514201Y0542602D01*
X0514823Y0542670D01*
X0515446Y0542723D01*
X0516071Y0542761D01*
X0516696Y0542783D01*
X0517322Y0542790D01*
X0517947Y0542782D01*
X0518573Y0542758D01*
X0519197Y0542719D01*
X0519820Y0542665D01*
X0520442Y0542595D01*
X0521062Y0542510D01*
X0521680Y0542410D01*
X0522295Y0542295D01*
D11*
X0265673Y0319571D02*
X0265673Y0315634D01*
X0297169Y0315634D01*
X0310949Y0309728D01*
X0310949Y0289059D01*
X0293232Y0289059D01*
X0293232Y0288075D01*
X0322228Y0288075D01*
X0322326Y0288073D01*
X0322424Y0288067D01*
X0322522Y0288058D01*
X0322619Y0288044D01*
X0322716Y0288027D01*
X0322812Y0288006D01*
X0322907Y0287981D01*
X0323001Y0287953D01*
X0323093Y0287920D01*
X0323185Y0287885D01*
X0323275Y0287845D01*
X0323363Y0287803D01*
X0323450Y0287756D01*
X0323534Y0287707D01*
X0323617Y0287654D01*
X0323697Y0287598D01*
X0323776Y0287538D01*
X0323852Y0287476D01*
X0323925Y0287411D01*
X0323996Y0287343D01*
X0324064Y0287272D01*
X0324129Y0287199D01*
X0324191Y0287123D01*
X0324251Y0287044D01*
X0324307Y0286964D01*
X0324360Y0286881D01*
X0324409Y0286797D01*
X0324456Y0286710D01*
X0324498Y0286622D01*
X0324538Y0286532D01*
X0324573Y0286440D01*
X0324606Y0286348D01*
X0324634Y0286254D01*
X0324659Y0286159D01*
X0324680Y0286063D01*
X0324697Y0285966D01*
X0324711Y0285869D01*
X0324720Y0285771D01*
X0324726Y0285673D01*
X0324728Y0285575D01*
X0324728Y0259079D01*
X0324726Y0258981D01*
X0324720Y0258883D01*
X0324711Y0258785D01*
X0324697Y0258688D01*
X0324680Y0258591D01*
X0324659Y0258495D01*
X0324634Y0258400D01*
X0324606Y0258306D01*
X0324573Y0258214D01*
X0324538Y0258122D01*
X0324498Y0258032D01*
X0324456Y0257944D01*
X0324409Y0257857D01*
X0324360Y0257773D01*
X0324307Y0257690D01*
X0324251Y0257610D01*
X0324191Y0257531D01*
X0324129Y0257455D01*
X0324064Y0257382D01*
X0323996Y0257311D01*
X0323925Y0257243D01*
X0323852Y0257178D01*
X0323776Y0257116D01*
X0323697Y0257056D01*
X0323617Y0257000D01*
X0323534Y0256947D01*
X0323450Y0256898D01*
X0323363Y0256851D01*
X0323275Y0256809D01*
X0323185Y0256769D01*
X0323093Y0256734D01*
X0323001Y0256701D01*
X0322907Y0256673D01*
X0322812Y0256648D01*
X0322716Y0256627D01*
X0322619Y0256610D01*
X0322522Y0256596D01*
X0322424Y0256587D01*
X0322326Y0256581D01*
X0322228Y0256579D01*
X0293232Y0256579D01*
X0293232Y0255594D01*
X0310949Y0255594D01*
X0310949Y0234925D01*
X0297169Y0229020D01*
X0265673Y0229020D01*
X0265673Y0225082D01*
X0265673Y0229020D02*
X0256815Y0229020D01*
X0256815Y0225082D01*
X0256815Y0229020D02*
X0220397Y0229020D01*
X0208586Y0262484D01*
X0251894Y0262484D01*
X0263705Y0229020D01*
X0265673Y0225082D02*
X0265671Y0224951D01*
X0265665Y0224820D01*
X0265656Y0224689D01*
X0265642Y0224558D01*
X0265624Y0224428D01*
X0265603Y0224299D01*
X0265578Y0224170D01*
X0265549Y0224042D01*
X0265516Y0223915D01*
X0265480Y0223788D01*
X0265440Y0223664D01*
X0265396Y0223540D01*
X0265348Y0223417D01*
X0265297Y0223297D01*
X0265242Y0223177D01*
X0265184Y0223060D01*
X0265123Y0222944D01*
X0265058Y0222830D01*
X0264989Y0222718D01*
X0264917Y0222608D01*
X0264843Y0222500D01*
X0264764Y0222394D01*
X0264683Y0222291D01*
X0264599Y0222191D01*
X0264512Y0222093D01*
X0264422Y0221997D01*
X0264329Y0221904D01*
X0264233Y0221814D01*
X0264135Y0221727D01*
X0264035Y0221643D01*
X0263932Y0221562D01*
X0263826Y0221483D01*
X0263718Y0221409D01*
X0263608Y0221337D01*
X0263496Y0221268D01*
X0263382Y0221203D01*
X0263266Y0221142D01*
X0263149Y0221084D01*
X0263029Y0221029D01*
X0262909Y0220978D01*
X0262786Y0220930D01*
X0262662Y0220886D01*
X0262538Y0220846D01*
X0262411Y0220810D01*
X0262284Y0220777D01*
X0262156Y0220748D01*
X0262027Y0220723D01*
X0261898Y0220702D01*
X0261768Y0220684D01*
X0261637Y0220670D01*
X0261506Y0220661D01*
X0261375Y0220655D01*
X0261244Y0220653D01*
X0261113Y0220655D01*
X0260982Y0220661D01*
X0260851Y0220670D01*
X0260720Y0220684D01*
X0260590Y0220702D01*
X0260461Y0220723D01*
X0260332Y0220748D01*
X0260204Y0220777D01*
X0260077Y0220810D01*
X0259950Y0220846D01*
X0259826Y0220886D01*
X0259702Y0220930D01*
X0259579Y0220978D01*
X0259459Y0221029D01*
X0259339Y0221084D01*
X0259222Y0221142D01*
X0259106Y0221203D01*
X0258992Y0221268D01*
X0258880Y0221337D01*
X0258770Y0221409D01*
X0258662Y0221483D01*
X0258556Y0221562D01*
X0258453Y0221643D01*
X0258353Y0221727D01*
X0258255Y0221814D01*
X0258159Y0221904D01*
X0258066Y0221997D01*
X0257976Y0222093D01*
X0257889Y0222191D01*
X0257805Y0222291D01*
X0257724Y0222394D01*
X0257645Y0222500D01*
X0257571Y0222608D01*
X0257499Y0222718D01*
X0257430Y0222830D01*
X0257365Y0222944D01*
X0257304Y0223060D01*
X0257246Y0223177D01*
X0257191Y0223297D01*
X0257140Y0223417D01*
X0257092Y0223540D01*
X0257048Y0223664D01*
X0257008Y0223788D01*
X0256972Y0223915D01*
X0256939Y0224042D01*
X0256910Y0224170D01*
X0256885Y0224299D01*
X0256864Y0224428D01*
X0256846Y0224558D01*
X0256832Y0224689D01*
X0256823Y0224820D01*
X0256817Y0224951D01*
X0256815Y0225082D01*
X0279453Y0229020D02*
X0267642Y0262484D01*
X0267642Y0282169D01*
X0279453Y0315634D01*
X0265673Y0315634D02*
X0256815Y0315634D01*
X0220397Y0315634D01*
X0207602Y0315634D01*
X0204649Y0315634D01*
X0198744Y0315634D01*
X0198744Y0319571D01*
X0198744Y0315634D02*
X0152031Y0315634D01*
X0151933Y0315632D01*
X0151835Y0315626D01*
X0151737Y0315617D01*
X0151640Y0315603D01*
X0151543Y0315586D01*
X0151447Y0315565D01*
X0151352Y0315540D01*
X0151258Y0315512D01*
X0151166Y0315479D01*
X0151074Y0315444D01*
X0150984Y0315404D01*
X0150896Y0315362D01*
X0150809Y0315315D01*
X0150725Y0315266D01*
X0150642Y0315213D01*
X0150562Y0315157D01*
X0150483Y0315097D01*
X0150407Y0315035D01*
X0150334Y0314970D01*
X0150263Y0314902D01*
X0150195Y0314831D01*
X0150130Y0314758D01*
X0150068Y0314682D01*
X0150008Y0314603D01*
X0149952Y0314523D01*
X0149899Y0314440D01*
X0149850Y0314356D01*
X0149803Y0314269D01*
X0149761Y0314181D01*
X0149721Y0314091D01*
X0149686Y0313999D01*
X0149653Y0313907D01*
X0149625Y0313813D01*
X0149600Y0313718D01*
X0149579Y0313622D01*
X0149562Y0313525D01*
X0149548Y0313428D01*
X0149539Y0313330D01*
X0149533Y0313232D01*
X0149531Y0313134D01*
X0149531Y0292012D01*
X0139689Y0292012D01*
X0139689Y0278232D01*
X0135752Y0278232D01*
X0135752Y0266421D01*
X0139689Y0266421D01*
X0139689Y0278232D01*
X0149531Y0292012D02*
X0149531Y0252642D01*
X0139689Y0252642D01*
X0139689Y0266421D01*
X0149531Y0252642D02*
X0149531Y0231520D01*
X0149533Y0231422D01*
X0149539Y0231324D01*
X0149548Y0231226D01*
X0149562Y0231129D01*
X0149579Y0231032D01*
X0149600Y0230936D01*
X0149625Y0230841D01*
X0149653Y0230747D01*
X0149686Y0230655D01*
X0149721Y0230563D01*
X0149761Y0230473D01*
X0149803Y0230385D01*
X0149850Y0230298D01*
X0149899Y0230214D01*
X0149952Y0230131D01*
X0150008Y0230051D01*
X0150068Y0229972D01*
X0150130Y0229896D01*
X0150195Y0229823D01*
X0150263Y0229752D01*
X0150334Y0229684D01*
X0150407Y0229619D01*
X0150483Y0229557D01*
X0150562Y0229497D01*
X0150642Y0229441D01*
X0150725Y0229388D01*
X0150809Y0229339D01*
X0150896Y0229292D01*
X0150984Y0229250D01*
X0151074Y0229210D01*
X0151166Y0229175D01*
X0151258Y0229142D01*
X0151352Y0229114D01*
X0151447Y0229089D01*
X0151543Y0229068D01*
X0151640Y0229051D01*
X0151737Y0229037D01*
X0151835Y0229028D01*
X0151933Y0229022D01*
X0152031Y0229020D01*
X0198744Y0229020D01*
X0198744Y0225082D01*
X0198744Y0229020D02*
X0204649Y0229020D01*
X0207602Y0229020D01*
X0207602Y0225082D01*
X0207602Y0229020D02*
X0220397Y0229020D01*
X0204649Y0229020D02*
X0192838Y0262484D01*
X0192838Y0282169D01*
X0204649Y0315634D01*
X0207602Y0315634D02*
X0207602Y0319571D01*
X0207600Y0319702D01*
X0207594Y0319833D01*
X0207585Y0319964D01*
X0207571Y0320095D01*
X0207553Y0320225D01*
X0207532Y0320354D01*
X0207507Y0320483D01*
X0207478Y0320611D01*
X0207445Y0320738D01*
X0207409Y0320865D01*
X0207369Y0320989D01*
X0207325Y0321113D01*
X0207277Y0321236D01*
X0207226Y0321356D01*
X0207171Y0321476D01*
X0207113Y0321593D01*
X0207052Y0321709D01*
X0206987Y0321823D01*
X0206918Y0321935D01*
X0206846Y0322045D01*
X0206772Y0322153D01*
X0206693Y0322259D01*
X0206612Y0322362D01*
X0206528Y0322462D01*
X0206441Y0322560D01*
X0206351Y0322656D01*
X0206258Y0322749D01*
X0206162Y0322839D01*
X0206064Y0322926D01*
X0205964Y0323010D01*
X0205861Y0323091D01*
X0205755Y0323170D01*
X0205647Y0323244D01*
X0205537Y0323316D01*
X0205425Y0323385D01*
X0205311Y0323450D01*
X0205195Y0323511D01*
X0205078Y0323569D01*
X0204958Y0323624D01*
X0204838Y0323675D01*
X0204715Y0323723D01*
X0204591Y0323767D01*
X0204467Y0323807D01*
X0204340Y0323843D01*
X0204213Y0323876D01*
X0204085Y0323905D01*
X0203956Y0323930D01*
X0203827Y0323951D01*
X0203697Y0323969D01*
X0203566Y0323983D01*
X0203435Y0323992D01*
X0203304Y0323998D01*
X0203173Y0324000D01*
X0203042Y0323998D01*
X0202911Y0323992D01*
X0202780Y0323983D01*
X0202649Y0323969D01*
X0202519Y0323951D01*
X0202390Y0323930D01*
X0202261Y0323905D01*
X0202133Y0323876D01*
X0202006Y0323843D01*
X0201879Y0323807D01*
X0201755Y0323767D01*
X0201631Y0323723D01*
X0201508Y0323675D01*
X0201388Y0323624D01*
X0201268Y0323569D01*
X0201151Y0323511D01*
X0201035Y0323450D01*
X0200921Y0323385D01*
X0200809Y0323316D01*
X0200699Y0323244D01*
X0200591Y0323170D01*
X0200485Y0323091D01*
X0200382Y0323010D01*
X0200282Y0322926D01*
X0200184Y0322839D01*
X0200088Y0322749D01*
X0199995Y0322656D01*
X0199905Y0322560D01*
X0199818Y0322462D01*
X0199734Y0322362D01*
X0199653Y0322259D01*
X0199574Y0322153D01*
X0199500Y0322045D01*
X0199428Y0321935D01*
X0199359Y0321823D01*
X0199294Y0321709D01*
X0199233Y0321593D01*
X0199175Y0321476D01*
X0199120Y0321356D01*
X0199069Y0321236D01*
X0199021Y0321113D01*
X0198977Y0320989D01*
X0198937Y0320865D01*
X0198901Y0320738D01*
X0198868Y0320611D01*
X0198839Y0320483D01*
X0198814Y0320354D01*
X0198793Y0320225D01*
X0198775Y0320095D01*
X0198761Y0319964D01*
X0198752Y0319833D01*
X0198746Y0319702D01*
X0198744Y0319571D01*
X0220397Y0315634D02*
X0208586Y0282169D01*
X0251894Y0282169D01*
X0263705Y0315634D01*
X0265673Y0319571D02*
X0265671Y0319702D01*
X0265665Y0319833D01*
X0265656Y0319964D01*
X0265642Y0320095D01*
X0265624Y0320225D01*
X0265603Y0320354D01*
X0265578Y0320483D01*
X0265549Y0320611D01*
X0265516Y0320738D01*
X0265480Y0320865D01*
X0265440Y0320989D01*
X0265396Y0321113D01*
X0265348Y0321236D01*
X0265297Y0321356D01*
X0265242Y0321476D01*
X0265184Y0321593D01*
X0265123Y0321709D01*
X0265058Y0321823D01*
X0264989Y0321935D01*
X0264917Y0322045D01*
X0264843Y0322153D01*
X0264764Y0322259D01*
X0264683Y0322362D01*
X0264599Y0322462D01*
X0264512Y0322560D01*
X0264422Y0322656D01*
X0264329Y0322749D01*
X0264233Y0322839D01*
X0264135Y0322926D01*
X0264035Y0323010D01*
X0263932Y0323091D01*
X0263826Y0323170D01*
X0263718Y0323244D01*
X0263608Y0323316D01*
X0263496Y0323385D01*
X0263382Y0323450D01*
X0263266Y0323511D01*
X0263149Y0323569D01*
X0263029Y0323624D01*
X0262909Y0323675D01*
X0262786Y0323723D01*
X0262662Y0323767D01*
X0262538Y0323807D01*
X0262411Y0323843D01*
X0262284Y0323876D01*
X0262156Y0323905D01*
X0262027Y0323930D01*
X0261898Y0323951D01*
X0261768Y0323969D01*
X0261637Y0323983D01*
X0261506Y0323992D01*
X0261375Y0323998D01*
X0261244Y0324000D01*
X0261113Y0323998D01*
X0260982Y0323992D01*
X0260851Y0323983D01*
X0260720Y0323969D01*
X0260590Y0323951D01*
X0260461Y0323930D01*
X0260332Y0323905D01*
X0260204Y0323876D01*
X0260077Y0323843D01*
X0259950Y0323807D01*
X0259826Y0323767D01*
X0259702Y0323723D01*
X0259579Y0323675D01*
X0259459Y0323624D01*
X0259339Y0323569D01*
X0259222Y0323511D01*
X0259106Y0323450D01*
X0258992Y0323385D01*
X0258880Y0323316D01*
X0258770Y0323244D01*
X0258662Y0323170D01*
X0258556Y0323091D01*
X0258453Y0323010D01*
X0258353Y0322926D01*
X0258255Y0322839D01*
X0258159Y0322749D01*
X0258066Y0322656D01*
X0257976Y0322560D01*
X0257889Y0322462D01*
X0257805Y0322362D01*
X0257724Y0322259D01*
X0257645Y0322153D01*
X0257571Y0322045D01*
X0257499Y0321935D01*
X0257430Y0321823D01*
X0257365Y0321709D01*
X0257304Y0321593D01*
X0257246Y0321476D01*
X0257191Y0321356D01*
X0257140Y0321236D01*
X0257092Y0321113D01*
X0257048Y0320989D01*
X0257008Y0320865D01*
X0256972Y0320738D01*
X0256939Y0320611D01*
X0256910Y0320483D01*
X0256885Y0320354D01*
X0256864Y0320225D01*
X0256846Y0320095D01*
X0256832Y0319964D01*
X0256823Y0319833D01*
X0256817Y0319702D01*
X0256815Y0319571D01*
X0256815Y0315634D01*
X0163311Y0313665D02*
X0151500Y0301854D01*
X0151500Y0311165D01*
X0151502Y0311263D01*
X0151508Y0311361D01*
X0151517Y0311459D01*
X0151531Y0311556D01*
X0151548Y0311653D01*
X0151569Y0311749D01*
X0151594Y0311844D01*
X0151622Y0311938D01*
X0151655Y0312030D01*
X0151690Y0312122D01*
X0151730Y0312212D01*
X0151772Y0312300D01*
X0151819Y0312387D01*
X0151868Y0312471D01*
X0151921Y0312554D01*
X0151977Y0312634D01*
X0152037Y0312713D01*
X0152099Y0312789D01*
X0152164Y0312862D01*
X0152232Y0312933D01*
X0152303Y0313001D01*
X0152376Y0313066D01*
X0152452Y0313128D01*
X0152531Y0313188D01*
X0152611Y0313244D01*
X0152694Y0313297D01*
X0152778Y0313346D01*
X0152865Y0313393D01*
X0152953Y0313435D01*
X0153043Y0313475D01*
X0153135Y0313510D01*
X0153227Y0313543D01*
X0153321Y0313571D01*
X0153416Y0313596D01*
X0153512Y0313617D01*
X0153609Y0313634D01*
X0153706Y0313648D01*
X0153804Y0313657D01*
X0153902Y0313663D01*
X0154000Y0313665D01*
X0163311Y0313665D01*
X0151500Y0242799D02*
X0151500Y0233488D01*
X0151502Y0233390D01*
X0151508Y0233292D01*
X0151517Y0233194D01*
X0151531Y0233097D01*
X0151548Y0233000D01*
X0151569Y0232904D01*
X0151594Y0232809D01*
X0151622Y0232715D01*
X0151655Y0232623D01*
X0151690Y0232531D01*
X0151730Y0232441D01*
X0151772Y0232353D01*
X0151819Y0232266D01*
X0151868Y0232182D01*
X0151921Y0232099D01*
X0151977Y0232019D01*
X0152037Y0231940D01*
X0152099Y0231864D01*
X0152164Y0231791D01*
X0152232Y0231720D01*
X0152303Y0231652D01*
X0152376Y0231587D01*
X0152452Y0231525D01*
X0152531Y0231465D01*
X0152611Y0231409D01*
X0152694Y0231356D01*
X0152778Y0231307D01*
X0152865Y0231260D01*
X0152953Y0231218D01*
X0153043Y0231178D01*
X0153135Y0231143D01*
X0153227Y0231110D01*
X0153321Y0231082D01*
X0153416Y0231057D01*
X0153512Y0231036D01*
X0153609Y0231019D01*
X0153706Y0231005D01*
X0153804Y0230996D01*
X0153902Y0230990D01*
X0154000Y0230988D01*
X0163311Y0230988D01*
X0151500Y0242799D01*
X0198744Y0225082D02*
X0198746Y0224951D01*
X0198752Y0224820D01*
X0198761Y0224689D01*
X0198775Y0224558D01*
X0198793Y0224428D01*
X0198814Y0224299D01*
X0198839Y0224170D01*
X0198868Y0224042D01*
X0198901Y0223915D01*
X0198937Y0223788D01*
X0198977Y0223664D01*
X0199021Y0223540D01*
X0199069Y0223417D01*
X0199120Y0223297D01*
X0199175Y0223177D01*
X0199233Y0223060D01*
X0199294Y0222944D01*
X0199359Y0222830D01*
X0199428Y0222718D01*
X0199500Y0222608D01*
X0199574Y0222500D01*
X0199653Y0222394D01*
X0199734Y0222291D01*
X0199818Y0222191D01*
X0199905Y0222093D01*
X0199995Y0221997D01*
X0200088Y0221904D01*
X0200184Y0221814D01*
X0200282Y0221727D01*
X0200382Y0221643D01*
X0200485Y0221562D01*
X0200591Y0221483D01*
X0200699Y0221409D01*
X0200809Y0221337D01*
X0200921Y0221268D01*
X0201035Y0221203D01*
X0201151Y0221142D01*
X0201268Y0221084D01*
X0201388Y0221029D01*
X0201508Y0220978D01*
X0201631Y0220930D01*
X0201755Y0220886D01*
X0201879Y0220846D01*
X0202006Y0220810D01*
X0202133Y0220777D01*
X0202261Y0220748D01*
X0202390Y0220723D01*
X0202519Y0220702D01*
X0202649Y0220684D01*
X0202780Y0220670D01*
X0202911Y0220661D01*
X0203042Y0220655D01*
X0203173Y0220653D01*
X0203304Y0220655D01*
X0203435Y0220661D01*
X0203566Y0220670D01*
X0203697Y0220684D01*
X0203827Y0220702D01*
X0203956Y0220723D01*
X0204085Y0220748D01*
X0204213Y0220777D01*
X0204340Y0220810D01*
X0204467Y0220846D01*
X0204591Y0220886D01*
X0204715Y0220930D01*
X0204838Y0220978D01*
X0204958Y0221029D01*
X0205078Y0221084D01*
X0205195Y0221142D01*
X0205311Y0221203D01*
X0205425Y0221268D01*
X0205537Y0221337D01*
X0205647Y0221409D01*
X0205755Y0221483D01*
X0205861Y0221562D01*
X0205964Y0221643D01*
X0206064Y0221727D01*
X0206162Y0221814D01*
X0206258Y0221904D01*
X0206351Y0221997D01*
X0206441Y0222093D01*
X0206528Y0222191D01*
X0206612Y0222291D01*
X0206693Y0222394D01*
X0206772Y0222500D01*
X0206846Y0222608D01*
X0206918Y0222718D01*
X0206987Y0222830D01*
X0207052Y0222944D01*
X0207113Y0223060D01*
X0207171Y0223177D01*
X0207226Y0223297D01*
X0207277Y0223417D01*
X0207325Y0223540D01*
X0207369Y0223664D01*
X0207409Y0223788D01*
X0207445Y0223915D01*
X0207478Y0224042D01*
X0207507Y0224170D01*
X0207532Y0224299D01*
X0207553Y0224428D01*
X0207571Y0224558D01*
X0207585Y0224689D01*
X0207594Y0224820D01*
X0207600Y0224951D01*
X0207602Y0225082D01*
D12*
X0222033Y0220027D02*
X0225103Y0220027D01*
X0223568Y0220027D02*
X0223568Y0224631D01*
X0225103Y0223096D01*
X0226637Y0224631D02*
X0229707Y0224631D01*
X0231241Y0224631D02*
X0234310Y0224631D01*
X0232776Y0224631D02*
X0232776Y0220027D01*
X0235845Y0220027D02*
X0235845Y0223096D01*
X0237380Y0224631D01*
X0238914Y0223096D01*
X0238914Y0220027D01*
X0240449Y0220794D02*
X0241216Y0220027D01*
X0243518Y0220027D01*
X0243518Y0224631D01*
X0241216Y0224631D01*
X0240449Y0223863D01*
X0240449Y0223096D01*
X0241216Y0222329D01*
X0243518Y0222329D01*
X0241216Y0222329D02*
X0240449Y0221561D01*
X0240449Y0220794D01*
X0238914Y0222329D02*
X0235845Y0222329D01*
X0228172Y0220027D02*
X0228172Y0224631D01*
X0242974Y0338294D02*
X0242974Y0341363D01*
X0244508Y0339829D02*
X0241439Y0339829D01*
X0232008Y0339829D02*
X0228939Y0339829D01*
D13*
X0200515Y0319768D02*
X0200517Y0319873D01*
X0200523Y0319978D01*
X0200533Y0320082D01*
X0200547Y0320186D01*
X0200565Y0320290D01*
X0200587Y0320392D01*
X0200612Y0320494D01*
X0200642Y0320595D01*
X0200675Y0320694D01*
X0200712Y0320792D01*
X0200753Y0320889D01*
X0200798Y0320984D01*
X0200846Y0321077D01*
X0200897Y0321169D01*
X0200953Y0321258D01*
X0201011Y0321345D01*
X0201073Y0321430D01*
X0201137Y0321513D01*
X0201205Y0321593D01*
X0201276Y0321670D01*
X0201350Y0321744D01*
X0201427Y0321816D01*
X0201506Y0321885D01*
X0201588Y0321950D01*
X0201672Y0322013D01*
X0201759Y0322072D01*
X0201848Y0322128D01*
X0201939Y0322181D01*
X0202032Y0322230D01*
X0202126Y0322275D01*
X0202222Y0322317D01*
X0202320Y0322355D01*
X0202419Y0322389D01*
X0202520Y0322420D01*
X0202621Y0322446D01*
X0202724Y0322469D01*
X0202827Y0322488D01*
X0202931Y0322503D01*
X0203035Y0322514D01*
X0203140Y0322521D01*
X0203245Y0322524D01*
X0203350Y0322523D01*
X0203455Y0322518D01*
X0203559Y0322509D01*
X0203663Y0322496D01*
X0203767Y0322479D01*
X0203870Y0322458D01*
X0203972Y0322433D01*
X0204073Y0322405D01*
X0204172Y0322372D01*
X0204271Y0322336D01*
X0204368Y0322296D01*
X0204463Y0322253D01*
X0204557Y0322205D01*
X0204649Y0322155D01*
X0204739Y0322101D01*
X0204827Y0322043D01*
X0204912Y0321982D01*
X0204995Y0321918D01*
X0205076Y0321851D01*
X0205154Y0321781D01*
X0205229Y0321707D01*
X0205301Y0321632D01*
X0205371Y0321553D01*
X0205437Y0321472D01*
X0205501Y0321388D01*
X0205561Y0321302D01*
X0205617Y0321214D01*
X0205671Y0321123D01*
X0205721Y0321031D01*
X0205767Y0320937D01*
X0205810Y0320841D01*
X0205849Y0320743D01*
X0205884Y0320645D01*
X0205915Y0320544D01*
X0205943Y0320443D01*
X0205967Y0320341D01*
X0205987Y0320238D01*
X0206003Y0320134D01*
X0206015Y0320030D01*
X0206023Y0319925D01*
X0206027Y0319820D01*
X0206027Y0319716D01*
X0206023Y0319611D01*
X0206015Y0319506D01*
X0206003Y0319402D01*
X0205987Y0319298D01*
X0205967Y0319195D01*
X0205943Y0319093D01*
X0205915Y0318992D01*
X0205884Y0318891D01*
X0205849Y0318793D01*
X0205810Y0318695D01*
X0205767Y0318599D01*
X0205721Y0318505D01*
X0205671Y0318413D01*
X0205617Y0318322D01*
X0205561Y0318234D01*
X0205501Y0318148D01*
X0205437Y0318064D01*
X0205371Y0317983D01*
X0205301Y0317904D01*
X0205229Y0317829D01*
X0205154Y0317755D01*
X0205076Y0317685D01*
X0204995Y0317618D01*
X0204912Y0317554D01*
X0204827Y0317493D01*
X0204739Y0317435D01*
X0204649Y0317381D01*
X0204557Y0317331D01*
X0204463Y0317283D01*
X0204368Y0317240D01*
X0204271Y0317200D01*
X0204172Y0317164D01*
X0204073Y0317131D01*
X0203972Y0317103D01*
X0203870Y0317078D01*
X0203767Y0317057D01*
X0203663Y0317040D01*
X0203559Y0317027D01*
X0203455Y0317018D01*
X0203350Y0317013D01*
X0203245Y0317012D01*
X0203140Y0317015D01*
X0203035Y0317022D01*
X0202931Y0317033D01*
X0202827Y0317048D01*
X0202724Y0317067D01*
X0202621Y0317090D01*
X0202520Y0317116D01*
X0202419Y0317147D01*
X0202320Y0317181D01*
X0202222Y0317219D01*
X0202126Y0317261D01*
X0202032Y0317306D01*
X0201939Y0317355D01*
X0201848Y0317408D01*
X0201759Y0317464D01*
X0201672Y0317523D01*
X0201588Y0317586D01*
X0201506Y0317651D01*
X0201427Y0317720D01*
X0201350Y0317792D01*
X0201276Y0317866D01*
X0201205Y0317943D01*
X0201137Y0318023D01*
X0201073Y0318106D01*
X0201011Y0318191D01*
X0200953Y0318278D01*
X0200897Y0318367D01*
X0200846Y0318459D01*
X0200798Y0318552D01*
X0200753Y0318647D01*
X0200712Y0318744D01*
X0200675Y0318842D01*
X0200642Y0318941D01*
X0200612Y0319042D01*
X0200587Y0319144D01*
X0200565Y0319246D01*
X0200547Y0319350D01*
X0200533Y0319454D01*
X0200523Y0319558D01*
X0200517Y0319663D01*
X0200515Y0319768D01*
X0258389Y0319768D02*
X0258391Y0319873D01*
X0258397Y0319978D01*
X0258407Y0320082D01*
X0258421Y0320186D01*
X0258439Y0320290D01*
X0258461Y0320392D01*
X0258486Y0320494D01*
X0258516Y0320595D01*
X0258549Y0320694D01*
X0258586Y0320792D01*
X0258627Y0320889D01*
X0258672Y0320984D01*
X0258720Y0321077D01*
X0258771Y0321169D01*
X0258827Y0321258D01*
X0258885Y0321345D01*
X0258947Y0321430D01*
X0259011Y0321513D01*
X0259079Y0321593D01*
X0259150Y0321670D01*
X0259224Y0321744D01*
X0259301Y0321816D01*
X0259380Y0321885D01*
X0259462Y0321950D01*
X0259546Y0322013D01*
X0259633Y0322072D01*
X0259722Y0322128D01*
X0259813Y0322181D01*
X0259906Y0322230D01*
X0260000Y0322275D01*
X0260096Y0322317D01*
X0260194Y0322355D01*
X0260293Y0322389D01*
X0260394Y0322420D01*
X0260495Y0322446D01*
X0260598Y0322469D01*
X0260701Y0322488D01*
X0260805Y0322503D01*
X0260909Y0322514D01*
X0261014Y0322521D01*
X0261119Y0322524D01*
X0261224Y0322523D01*
X0261329Y0322518D01*
X0261433Y0322509D01*
X0261537Y0322496D01*
X0261641Y0322479D01*
X0261744Y0322458D01*
X0261846Y0322433D01*
X0261947Y0322405D01*
X0262046Y0322372D01*
X0262145Y0322336D01*
X0262242Y0322296D01*
X0262337Y0322253D01*
X0262431Y0322205D01*
X0262523Y0322155D01*
X0262613Y0322101D01*
X0262701Y0322043D01*
X0262786Y0321982D01*
X0262869Y0321918D01*
X0262950Y0321851D01*
X0263028Y0321781D01*
X0263103Y0321707D01*
X0263175Y0321632D01*
X0263245Y0321553D01*
X0263311Y0321472D01*
X0263375Y0321388D01*
X0263435Y0321302D01*
X0263491Y0321214D01*
X0263545Y0321123D01*
X0263595Y0321031D01*
X0263641Y0320937D01*
X0263684Y0320841D01*
X0263723Y0320743D01*
X0263758Y0320645D01*
X0263789Y0320544D01*
X0263817Y0320443D01*
X0263841Y0320341D01*
X0263861Y0320238D01*
X0263877Y0320134D01*
X0263889Y0320030D01*
X0263897Y0319925D01*
X0263901Y0319820D01*
X0263901Y0319716D01*
X0263897Y0319611D01*
X0263889Y0319506D01*
X0263877Y0319402D01*
X0263861Y0319298D01*
X0263841Y0319195D01*
X0263817Y0319093D01*
X0263789Y0318992D01*
X0263758Y0318891D01*
X0263723Y0318793D01*
X0263684Y0318695D01*
X0263641Y0318599D01*
X0263595Y0318505D01*
X0263545Y0318413D01*
X0263491Y0318322D01*
X0263435Y0318234D01*
X0263375Y0318148D01*
X0263311Y0318064D01*
X0263245Y0317983D01*
X0263175Y0317904D01*
X0263103Y0317829D01*
X0263028Y0317755D01*
X0262950Y0317685D01*
X0262869Y0317618D01*
X0262786Y0317554D01*
X0262701Y0317493D01*
X0262613Y0317435D01*
X0262523Y0317381D01*
X0262431Y0317331D01*
X0262337Y0317283D01*
X0262242Y0317240D01*
X0262145Y0317200D01*
X0262046Y0317164D01*
X0261947Y0317131D01*
X0261846Y0317103D01*
X0261744Y0317078D01*
X0261641Y0317057D01*
X0261537Y0317040D01*
X0261433Y0317027D01*
X0261329Y0317018D01*
X0261224Y0317013D01*
X0261119Y0317012D01*
X0261014Y0317015D01*
X0260909Y0317022D01*
X0260805Y0317033D01*
X0260701Y0317048D01*
X0260598Y0317067D01*
X0260495Y0317090D01*
X0260394Y0317116D01*
X0260293Y0317147D01*
X0260194Y0317181D01*
X0260096Y0317219D01*
X0260000Y0317261D01*
X0259906Y0317306D01*
X0259813Y0317355D01*
X0259722Y0317408D01*
X0259633Y0317464D01*
X0259546Y0317523D01*
X0259462Y0317586D01*
X0259380Y0317651D01*
X0259301Y0317720D01*
X0259224Y0317792D01*
X0259150Y0317866D01*
X0259079Y0317943D01*
X0259011Y0318023D01*
X0258947Y0318106D01*
X0258885Y0318191D01*
X0258827Y0318278D01*
X0258771Y0318367D01*
X0258720Y0318459D01*
X0258672Y0318552D01*
X0258627Y0318647D01*
X0258586Y0318744D01*
X0258549Y0318842D01*
X0258516Y0318941D01*
X0258486Y0319042D01*
X0258461Y0319144D01*
X0258439Y0319246D01*
X0258421Y0319350D01*
X0258407Y0319454D01*
X0258397Y0319558D01*
X0258391Y0319663D01*
X0258389Y0319768D01*
X0258389Y0224886D02*
X0258391Y0224991D01*
X0258397Y0225096D01*
X0258407Y0225200D01*
X0258421Y0225304D01*
X0258439Y0225408D01*
X0258461Y0225510D01*
X0258486Y0225612D01*
X0258516Y0225713D01*
X0258549Y0225812D01*
X0258586Y0225910D01*
X0258627Y0226007D01*
X0258672Y0226102D01*
X0258720Y0226195D01*
X0258771Y0226287D01*
X0258827Y0226376D01*
X0258885Y0226463D01*
X0258947Y0226548D01*
X0259011Y0226631D01*
X0259079Y0226711D01*
X0259150Y0226788D01*
X0259224Y0226862D01*
X0259301Y0226934D01*
X0259380Y0227003D01*
X0259462Y0227068D01*
X0259546Y0227131D01*
X0259633Y0227190D01*
X0259722Y0227246D01*
X0259813Y0227299D01*
X0259906Y0227348D01*
X0260000Y0227393D01*
X0260096Y0227435D01*
X0260194Y0227473D01*
X0260293Y0227507D01*
X0260394Y0227538D01*
X0260495Y0227564D01*
X0260598Y0227587D01*
X0260701Y0227606D01*
X0260805Y0227621D01*
X0260909Y0227632D01*
X0261014Y0227639D01*
X0261119Y0227642D01*
X0261224Y0227641D01*
X0261329Y0227636D01*
X0261433Y0227627D01*
X0261537Y0227614D01*
X0261641Y0227597D01*
X0261744Y0227576D01*
X0261846Y0227551D01*
X0261947Y0227523D01*
X0262046Y0227490D01*
X0262145Y0227454D01*
X0262242Y0227414D01*
X0262337Y0227371D01*
X0262431Y0227323D01*
X0262523Y0227273D01*
X0262613Y0227219D01*
X0262701Y0227161D01*
X0262786Y0227100D01*
X0262869Y0227036D01*
X0262950Y0226969D01*
X0263028Y0226899D01*
X0263103Y0226825D01*
X0263175Y0226750D01*
X0263245Y0226671D01*
X0263311Y0226590D01*
X0263375Y0226506D01*
X0263435Y0226420D01*
X0263491Y0226332D01*
X0263545Y0226241D01*
X0263595Y0226149D01*
X0263641Y0226055D01*
X0263684Y0225959D01*
X0263723Y0225861D01*
X0263758Y0225763D01*
X0263789Y0225662D01*
X0263817Y0225561D01*
X0263841Y0225459D01*
X0263861Y0225356D01*
X0263877Y0225252D01*
X0263889Y0225148D01*
X0263897Y0225043D01*
X0263901Y0224938D01*
X0263901Y0224834D01*
X0263897Y0224729D01*
X0263889Y0224624D01*
X0263877Y0224520D01*
X0263861Y0224416D01*
X0263841Y0224313D01*
X0263817Y0224211D01*
X0263789Y0224110D01*
X0263758Y0224009D01*
X0263723Y0223911D01*
X0263684Y0223813D01*
X0263641Y0223717D01*
X0263595Y0223623D01*
X0263545Y0223531D01*
X0263491Y0223440D01*
X0263435Y0223352D01*
X0263375Y0223266D01*
X0263311Y0223182D01*
X0263245Y0223101D01*
X0263175Y0223022D01*
X0263103Y0222947D01*
X0263028Y0222873D01*
X0262950Y0222803D01*
X0262869Y0222736D01*
X0262786Y0222672D01*
X0262701Y0222611D01*
X0262613Y0222553D01*
X0262523Y0222499D01*
X0262431Y0222449D01*
X0262337Y0222401D01*
X0262242Y0222358D01*
X0262145Y0222318D01*
X0262046Y0222282D01*
X0261947Y0222249D01*
X0261846Y0222221D01*
X0261744Y0222196D01*
X0261641Y0222175D01*
X0261537Y0222158D01*
X0261433Y0222145D01*
X0261329Y0222136D01*
X0261224Y0222131D01*
X0261119Y0222130D01*
X0261014Y0222133D01*
X0260909Y0222140D01*
X0260805Y0222151D01*
X0260701Y0222166D01*
X0260598Y0222185D01*
X0260495Y0222208D01*
X0260394Y0222234D01*
X0260293Y0222265D01*
X0260194Y0222299D01*
X0260096Y0222337D01*
X0260000Y0222379D01*
X0259906Y0222424D01*
X0259813Y0222473D01*
X0259722Y0222526D01*
X0259633Y0222582D01*
X0259546Y0222641D01*
X0259462Y0222704D01*
X0259380Y0222769D01*
X0259301Y0222838D01*
X0259224Y0222910D01*
X0259150Y0222984D01*
X0259079Y0223061D01*
X0259011Y0223141D01*
X0258947Y0223224D01*
X0258885Y0223309D01*
X0258827Y0223396D01*
X0258771Y0223485D01*
X0258720Y0223577D01*
X0258672Y0223670D01*
X0258627Y0223765D01*
X0258586Y0223862D01*
X0258549Y0223960D01*
X0258516Y0224059D01*
X0258486Y0224160D01*
X0258461Y0224262D01*
X0258439Y0224364D01*
X0258421Y0224468D01*
X0258407Y0224572D01*
X0258397Y0224676D01*
X0258391Y0224781D01*
X0258389Y0224886D01*
X0200515Y0224886D02*
X0200517Y0224991D01*
X0200523Y0225096D01*
X0200533Y0225200D01*
X0200547Y0225304D01*
X0200565Y0225408D01*
X0200587Y0225510D01*
X0200612Y0225612D01*
X0200642Y0225713D01*
X0200675Y0225812D01*
X0200712Y0225910D01*
X0200753Y0226007D01*
X0200798Y0226102D01*
X0200846Y0226195D01*
X0200897Y0226287D01*
X0200953Y0226376D01*
X0201011Y0226463D01*
X0201073Y0226548D01*
X0201137Y0226631D01*
X0201205Y0226711D01*
X0201276Y0226788D01*
X0201350Y0226862D01*
X0201427Y0226934D01*
X0201506Y0227003D01*
X0201588Y0227068D01*
X0201672Y0227131D01*
X0201759Y0227190D01*
X0201848Y0227246D01*
X0201939Y0227299D01*
X0202032Y0227348D01*
X0202126Y0227393D01*
X0202222Y0227435D01*
X0202320Y0227473D01*
X0202419Y0227507D01*
X0202520Y0227538D01*
X0202621Y0227564D01*
X0202724Y0227587D01*
X0202827Y0227606D01*
X0202931Y0227621D01*
X0203035Y0227632D01*
X0203140Y0227639D01*
X0203245Y0227642D01*
X0203350Y0227641D01*
X0203455Y0227636D01*
X0203559Y0227627D01*
X0203663Y0227614D01*
X0203767Y0227597D01*
X0203870Y0227576D01*
X0203972Y0227551D01*
X0204073Y0227523D01*
X0204172Y0227490D01*
X0204271Y0227454D01*
X0204368Y0227414D01*
X0204463Y0227371D01*
X0204557Y0227323D01*
X0204649Y0227273D01*
X0204739Y0227219D01*
X0204827Y0227161D01*
X0204912Y0227100D01*
X0204995Y0227036D01*
X0205076Y0226969D01*
X0205154Y0226899D01*
X0205229Y0226825D01*
X0205301Y0226750D01*
X0205371Y0226671D01*
X0205437Y0226590D01*
X0205501Y0226506D01*
X0205561Y0226420D01*
X0205617Y0226332D01*
X0205671Y0226241D01*
X0205721Y0226149D01*
X0205767Y0226055D01*
X0205810Y0225959D01*
X0205849Y0225861D01*
X0205884Y0225763D01*
X0205915Y0225662D01*
X0205943Y0225561D01*
X0205967Y0225459D01*
X0205987Y0225356D01*
X0206003Y0225252D01*
X0206015Y0225148D01*
X0206023Y0225043D01*
X0206027Y0224938D01*
X0206027Y0224834D01*
X0206023Y0224729D01*
X0206015Y0224624D01*
X0206003Y0224520D01*
X0205987Y0224416D01*
X0205967Y0224313D01*
X0205943Y0224211D01*
X0205915Y0224110D01*
X0205884Y0224009D01*
X0205849Y0223911D01*
X0205810Y0223813D01*
X0205767Y0223717D01*
X0205721Y0223623D01*
X0205671Y0223531D01*
X0205617Y0223440D01*
X0205561Y0223352D01*
X0205501Y0223266D01*
X0205437Y0223182D01*
X0205371Y0223101D01*
X0205301Y0223022D01*
X0205229Y0222947D01*
X0205154Y0222873D01*
X0205076Y0222803D01*
X0204995Y0222736D01*
X0204912Y0222672D01*
X0204827Y0222611D01*
X0204739Y0222553D01*
X0204649Y0222499D01*
X0204557Y0222449D01*
X0204463Y0222401D01*
X0204368Y0222358D01*
X0204271Y0222318D01*
X0204172Y0222282D01*
X0204073Y0222249D01*
X0203972Y0222221D01*
X0203870Y0222196D01*
X0203767Y0222175D01*
X0203663Y0222158D01*
X0203559Y0222145D01*
X0203455Y0222136D01*
X0203350Y0222131D01*
X0203245Y0222130D01*
X0203140Y0222133D01*
X0203035Y0222140D01*
X0202931Y0222151D01*
X0202827Y0222166D01*
X0202724Y0222185D01*
X0202621Y0222208D01*
X0202520Y0222234D01*
X0202419Y0222265D01*
X0202320Y0222299D01*
X0202222Y0222337D01*
X0202126Y0222379D01*
X0202032Y0222424D01*
X0201939Y0222473D01*
X0201848Y0222526D01*
X0201759Y0222582D01*
X0201672Y0222641D01*
X0201588Y0222704D01*
X0201506Y0222769D01*
X0201427Y0222838D01*
X0201350Y0222910D01*
X0201276Y0222984D01*
X0201205Y0223061D01*
X0201137Y0223141D01*
X0201073Y0223224D01*
X0201011Y0223309D01*
X0200953Y0223396D01*
X0200897Y0223485D01*
X0200846Y0223577D01*
X0200798Y0223670D01*
X0200753Y0223765D01*
X0200712Y0223862D01*
X0200675Y0223960D01*
X0200642Y0224059D01*
X0200612Y0224160D01*
X0200587Y0224262D01*
X0200565Y0224364D01*
X0200547Y0224468D01*
X0200533Y0224572D01*
X0200523Y0224676D01*
X0200517Y0224781D01*
X0200515Y0224886D01*
M02*
