G75*
%MOIN*%
%OFA0B0*%
%FSLAX25Y25*%
%IPPOS*%
%LPD*%
%AMOC8*
5,1,8,0,0,1.08239X$1,22.5*
%
%ADD10R,0.03150X0.01378*%
%ADD11C,0.05937*%
%ADD12C,0.01956*%
%ADD13C,0.01959*%
%ADD14C,0.01575*%
%ADD15C,0.01887*%
%ADD16R,0.07400X0.07400*%
%ADD17OC8,0.07400*%
%ADD18R,0.06496X0.06496*%
%ADD19C,0.06496*%
%ADD20C,0.07400*%
%ADD21C,0.01811*%
%ADD22R,0.10000X0.10000*%
%ADD23R,0.02559X0.06299*%
%ADD24R,0.10000X0.04000*%
%ADD25R,0.00906X0.01378*%
%ADD26R,0.01378X0.00906*%
%ADD27R,0.07874X0.07874*%
%ADD28R,0.11400X0.08100*%
%ADD29R,0.03940X0.05900*%
%ADD30R,0.08100X0.11400*%
%ADD31R,0.05900X0.03940*%
%ADD32R,0.01102X0.06150*%
%ADD33R,0.06150X0.01102*%
%ADD34R,0.02165X0.04724*%
%ADD35R,0.04331X0.07480*%
%ADD36C,0.01600*%
%ADD37C,0.05362*%
%ADD38C,0.00600*%
%ADD39C,0.04500*%
%ADD40C,0.01800*%
D10*
X0300177Y0365421D03*
X0300177Y0367980D03*
X0300177Y0370539D03*
X0306476Y0370539D03*
X0306476Y0367980D03*
X0306476Y0365421D03*
D11*
X0242208Y0332795D02*
X0242208Y0326858D01*
X0232208Y0326858D02*
X0232208Y0332795D01*
D12*
X0210313Y0337864D02*
X0208017Y0337864D01*
X0208017Y0341498D01*
X0210313Y0341498D01*
X0210313Y0337864D01*
X0210313Y0339819D02*
X0208017Y0339819D01*
X0203266Y0341498D02*
X0200970Y0341498D01*
X0203266Y0341498D02*
X0203266Y0337864D01*
X0200970Y0337864D01*
X0200970Y0341498D01*
X0200970Y0339819D02*
X0203266Y0339819D01*
X0202605Y0350191D02*
X0200309Y0350191D01*
X0202605Y0350191D02*
X0202605Y0346557D01*
X0200309Y0346557D01*
X0200309Y0350191D01*
X0200309Y0348512D02*
X0202605Y0348512D01*
X0207356Y0346557D02*
X0209652Y0346557D01*
X0207356Y0346557D02*
X0207356Y0350191D01*
X0209652Y0350191D01*
X0209652Y0346557D01*
X0209652Y0348512D02*
X0207356Y0348512D01*
X0260277Y0356041D02*
X0262573Y0356041D01*
X0262573Y0352407D01*
X0260277Y0352407D01*
X0260277Y0356041D01*
X0260277Y0354362D02*
X0262573Y0354362D01*
X0267324Y0352407D02*
X0269620Y0352407D01*
X0267324Y0352407D02*
X0267324Y0356041D01*
X0269620Y0356041D01*
X0269620Y0352407D01*
X0269620Y0354362D02*
X0267324Y0354362D01*
X0267372Y0360447D02*
X0269668Y0360447D01*
X0267372Y0360447D02*
X0267372Y0364081D01*
X0269668Y0364081D01*
X0269668Y0360447D01*
X0269668Y0362402D02*
X0267372Y0362402D01*
X0262620Y0364081D02*
X0260324Y0364081D01*
X0262620Y0364081D02*
X0262620Y0360447D01*
X0260324Y0360447D01*
X0260324Y0364081D01*
X0260324Y0362402D02*
X0262620Y0362402D01*
X0285505Y0367325D02*
X0287801Y0367325D01*
X0287801Y0363691D01*
X0285505Y0363691D01*
X0285505Y0367325D01*
X0285505Y0365646D02*
X0287801Y0365646D01*
X0292553Y0363691D02*
X0294849Y0363691D01*
X0292553Y0363691D02*
X0292553Y0367325D01*
X0294849Y0367325D01*
X0294849Y0363691D01*
X0294849Y0365646D02*
X0292553Y0365646D01*
X0292860Y0372352D02*
X0295156Y0372352D01*
X0292860Y0372352D02*
X0292860Y0375986D01*
X0295156Y0375986D01*
X0295156Y0372352D01*
X0295156Y0374307D02*
X0292860Y0374307D01*
X0288108Y0375986D02*
X0285812Y0375986D01*
X0288108Y0375986D02*
X0288108Y0372352D01*
X0285812Y0372352D01*
X0285812Y0375986D01*
X0285812Y0374307D02*
X0288108Y0374307D01*
X0332742Y0352151D02*
X0335038Y0352151D01*
X0335038Y0348517D01*
X0332742Y0348517D01*
X0332742Y0352151D01*
X0332742Y0350472D02*
X0335038Y0350472D01*
X0339789Y0348517D02*
X0342085Y0348517D01*
X0339789Y0348517D02*
X0339789Y0352151D01*
X0342085Y0352151D01*
X0342085Y0348517D01*
X0342085Y0350472D02*
X0339789Y0350472D01*
X0354230Y0345864D02*
X0354230Y0343568D01*
X0350596Y0343568D01*
X0350596Y0345864D01*
X0354230Y0345864D01*
X0354230Y0345523D02*
X0350596Y0345523D01*
X0350596Y0338817D02*
X0350596Y0336521D01*
X0350596Y0338817D02*
X0354230Y0338817D01*
X0354230Y0336521D01*
X0350596Y0336521D01*
X0350596Y0338476D02*
X0354230Y0338476D01*
X0354025Y0331502D02*
X0354025Y0329206D01*
X0350391Y0329206D01*
X0350391Y0331502D01*
X0354025Y0331502D01*
X0354025Y0331161D02*
X0350391Y0331161D01*
X0350391Y0324455D02*
X0350391Y0322159D01*
X0350391Y0324455D02*
X0354025Y0324455D01*
X0354025Y0322159D01*
X0350391Y0322159D01*
X0350391Y0324114D02*
X0354025Y0324114D01*
X0291592Y0305014D02*
X0291592Y0302718D01*
X0287958Y0302718D01*
X0287958Y0305014D01*
X0291592Y0305014D01*
X0291592Y0304673D02*
X0287958Y0304673D01*
X0283561Y0305014D02*
X0283561Y0302718D01*
X0279927Y0302718D01*
X0279927Y0305014D01*
X0283561Y0305014D01*
X0283561Y0304673D02*
X0279927Y0304673D01*
X0279927Y0297967D02*
X0279927Y0295671D01*
X0279927Y0297967D02*
X0283561Y0297967D01*
X0283561Y0295671D01*
X0279927Y0295671D01*
X0279927Y0297626D02*
X0283561Y0297626D01*
X0287958Y0297967D02*
X0287958Y0295671D01*
X0287958Y0297967D02*
X0291592Y0297967D01*
X0291592Y0295671D01*
X0287958Y0295671D01*
X0287958Y0297626D02*
X0291592Y0297626D01*
X0288967Y0284478D02*
X0286671Y0284478D01*
X0286671Y0288112D01*
X0288967Y0288112D01*
X0288967Y0284478D01*
X0288967Y0286433D02*
X0286671Y0286433D01*
X0281919Y0288112D02*
X0279623Y0288112D01*
X0281919Y0288112D02*
X0281919Y0284478D01*
X0279623Y0284478D01*
X0279623Y0288112D01*
X0279623Y0286433D02*
X0281919Y0286433D01*
X0274967Y0284478D02*
X0272671Y0284478D01*
X0272671Y0288112D01*
X0274967Y0288112D01*
X0274967Y0284478D01*
X0274967Y0286433D02*
X0272671Y0286433D01*
X0267919Y0288112D02*
X0265623Y0288112D01*
X0267919Y0288112D02*
X0267919Y0284478D01*
X0265623Y0284478D01*
X0265623Y0288112D01*
X0265623Y0286433D02*
X0267919Y0286433D01*
X0267573Y0312018D02*
X0265277Y0312018D01*
X0267573Y0312018D02*
X0267573Y0308384D01*
X0265277Y0308384D01*
X0265277Y0312018D01*
X0265277Y0310339D02*
X0267573Y0310339D01*
X0272324Y0308384D02*
X0274620Y0308384D01*
X0272324Y0308384D02*
X0272324Y0312018D01*
X0274620Y0312018D01*
X0274620Y0308384D01*
X0274620Y0310339D02*
X0272324Y0310339D01*
X0269620Y0328100D02*
X0267324Y0328100D01*
X0267324Y0331734D01*
X0269620Y0331734D01*
X0269620Y0328100D01*
X0269620Y0330055D02*
X0267324Y0330055D01*
X0262573Y0331734D02*
X0260277Y0331734D01*
X0262573Y0331734D02*
X0262573Y0328100D01*
X0260277Y0328100D01*
X0260277Y0331734D01*
X0260277Y0330055D02*
X0262573Y0330055D01*
X0262573Y0340451D02*
X0260277Y0340451D01*
X0262573Y0340451D02*
X0262573Y0336817D01*
X0260277Y0336817D01*
X0260277Y0340451D01*
X0260277Y0338772D02*
X0262573Y0338772D01*
X0267324Y0336817D02*
X0269620Y0336817D01*
X0267324Y0336817D02*
X0267324Y0340451D01*
X0269620Y0340451D01*
X0269620Y0336817D01*
X0269620Y0338772D02*
X0267324Y0338772D01*
X0370395Y0399065D02*
X0372691Y0399065D01*
X0372691Y0395431D01*
X0370395Y0395431D01*
X0370395Y0399065D01*
X0370395Y0397386D02*
X0372691Y0397386D01*
X0377442Y0395431D02*
X0379738Y0395431D01*
X0377442Y0395431D02*
X0377442Y0399065D01*
X0379738Y0399065D01*
X0379738Y0395431D01*
X0379738Y0397386D02*
X0377442Y0397386D01*
X0142340Y0384951D02*
X0142340Y0382655D01*
X0138706Y0382655D01*
X0138706Y0384951D01*
X0142340Y0384951D01*
X0142340Y0384610D02*
X0138706Y0384610D01*
X0138706Y0377904D02*
X0138706Y0375608D01*
X0138706Y0377904D02*
X0142340Y0377904D01*
X0142340Y0375608D01*
X0138706Y0375608D01*
X0138706Y0377563D02*
X0142340Y0377563D01*
X0392033Y0176345D02*
X0392033Y0174049D01*
X0388399Y0174049D01*
X0388399Y0176345D01*
X0392033Y0176345D01*
X0392033Y0176004D02*
X0388399Y0176004D01*
X0388399Y0169297D02*
X0388399Y0167001D01*
X0388399Y0169297D02*
X0392033Y0169297D01*
X0392033Y0167001D01*
X0388399Y0167001D01*
X0388399Y0168956D02*
X0392033Y0168956D01*
X0176408Y0147706D02*
X0174112Y0147706D01*
X0174112Y0151340D01*
X0176408Y0151340D01*
X0176408Y0147706D01*
X0176408Y0149661D02*
X0174112Y0149661D01*
X0169360Y0151340D02*
X0167064Y0151340D01*
X0169360Y0151340D02*
X0169360Y0147706D01*
X0167064Y0147706D01*
X0167064Y0151340D01*
X0167064Y0149661D02*
X0169360Y0149661D01*
D13*
X0178074Y0169973D02*
X0185446Y0169973D01*
X0185446Y0162365D01*
X0178074Y0162365D01*
X0178074Y0169973D01*
X0178074Y0164323D02*
X0185446Y0164323D01*
X0185446Y0166281D02*
X0178074Y0166281D01*
X0178074Y0168239D02*
X0185446Y0168239D01*
X0202641Y0162365D02*
X0210013Y0162365D01*
X0202641Y0162365D02*
X0202641Y0169973D01*
X0210013Y0169973D01*
X0210013Y0162365D01*
X0210013Y0164323D02*
X0202641Y0164323D01*
X0202641Y0166281D02*
X0210013Y0166281D01*
X0210013Y0168239D02*
X0202641Y0168239D01*
X0326074Y0162973D02*
X0333446Y0162973D01*
X0333446Y0155365D01*
X0326074Y0155365D01*
X0326074Y0162973D01*
X0326074Y0157323D02*
X0333446Y0157323D01*
X0333446Y0159281D02*
X0326074Y0159281D01*
X0326074Y0161239D02*
X0333446Y0161239D01*
X0350641Y0155365D02*
X0358013Y0155365D01*
X0350641Y0155365D02*
X0350641Y0162973D01*
X0358013Y0162973D01*
X0358013Y0155365D01*
X0358013Y0157323D02*
X0350641Y0157323D01*
X0350641Y0159281D02*
X0358013Y0159281D01*
X0358013Y0161239D02*
X0350641Y0161239D01*
X0169013Y0341365D02*
X0161641Y0341365D01*
X0161641Y0348973D01*
X0169013Y0348973D01*
X0169013Y0341365D01*
X0169013Y0343323D02*
X0161641Y0343323D01*
X0161641Y0345281D02*
X0169013Y0345281D01*
X0169013Y0347239D02*
X0161641Y0347239D01*
X0144446Y0348973D02*
X0137074Y0348973D01*
X0144446Y0348973D02*
X0144446Y0341365D01*
X0137074Y0341365D01*
X0137074Y0348973D01*
X0137074Y0343323D02*
X0144446Y0343323D01*
X0144446Y0345281D02*
X0137074Y0345281D01*
X0137074Y0347239D02*
X0144446Y0347239D01*
X0375074Y0354973D02*
X0382446Y0354973D01*
X0382446Y0347365D01*
X0375074Y0347365D01*
X0375074Y0354973D01*
X0375074Y0349323D02*
X0382446Y0349323D01*
X0382446Y0351281D02*
X0375074Y0351281D01*
X0375074Y0353239D02*
X0382446Y0353239D01*
X0399641Y0347365D02*
X0407013Y0347365D01*
X0399641Y0347365D02*
X0399641Y0354973D01*
X0407013Y0354973D01*
X0407013Y0347365D01*
X0407013Y0349323D02*
X0399641Y0349323D01*
X0399641Y0351281D02*
X0407013Y0351281D01*
X0407013Y0353239D02*
X0399641Y0353239D01*
D14*
X0383295Y0365460D02*
X0379949Y0365460D01*
X0379949Y0367036D01*
X0383295Y0367036D01*
X0383295Y0365460D01*
X0383295Y0367034D02*
X0379949Y0367034D01*
X0370185Y0367036D02*
X0366839Y0367036D01*
X0370185Y0367036D02*
X0370185Y0365460D01*
X0366839Y0365460D01*
X0366839Y0367036D01*
X0366839Y0367034D02*
X0370185Y0367034D01*
X0165752Y0365491D02*
X0162406Y0365491D01*
X0162406Y0367067D01*
X0165752Y0367067D01*
X0165752Y0365491D01*
X0165752Y0367065D02*
X0162406Y0367065D01*
X0152641Y0367067D02*
X0149295Y0367067D01*
X0152641Y0367067D02*
X0152641Y0365491D01*
X0149295Y0365491D01*
X0149295Y0367067D01*
X0149295Y0367065D02*
X0152641Y0367065D01*
X0378004Y0189901D02*
X0378004Y0186555D01*
X0376428Y0186555D01*
X0376428Y0189901D01*
X0378004Y0189901D01*
X0378004Y0188129D02*
X0376428Y0188129D01*
X0376428Y0189703D02*
X0378004Y0189703D01*
X0376428Y0176791D02*
X0376428Y0173445D01*
X0376428Y0176791D02*
X0378004Y0176791D01*
X0378004Y0173445D01*
X0376428Y0173445D01*
X0376428Y0175019D02*
X0378004Y0175019D01*
X0378004Y0176593D02*
X0376428Y0176593D01*
X0171964Y0159735D02*
X0168618Y0159735D01*
X0168618Y0161311D01*
X0171964Y0161311D01*
X0171964Y0159735D01*
X0171964Y0161309D02*
X0168618Y0161309D01*
X0158854Y0161311D02*
X0155508Y0161311D01*
X0158854Y0161311D02*
X0158854Y0159735D01*
X0155508Y0159735D01*
X0155508Y0161311D01*
X0155508Y0161309D02*
X0158854Y0161309D01*
D15*
X0191400Y0402277D02*
X0193214Y0402277D01*
X0193214Y0400265D01*
X0191400Y0400265D01*
X0191400Y0402277D01*
X0191400Y0402151D02*
X0193214Y0402151D01*
X0199628Y0400265D02*
X0201442Y0400265D01*
X0199628Y0400265D02*
X0199628Y0402277D01*
X0201442Y0402277D01*
X0201442Y0400265D01*
X0201442Y0402151D02*
X0199628Y0402151D01*
X0332628Y0404033D02*
X0334442Y0404033D01*
X0334442Y0402021D01*
X0332628Y0402021D01*
X0332628Y0404033D01*
X0332628Y0403907D02*
X0334442Y0403907D01*
X0340857Y0402021D02*
X0342671Y0402021D01*
X0340857Y0402021D02*
X0340857Y0404033D01*
X0342671Y0404033D01*
X0342671Y0402021D01*
X0342671Y0403907D02*
X0340857Y0403907D01*
D16*
X0251295Y0403295D03*
D17*
X0261295Y0403295D03*
X0261295Y0393295D03*
X0251295Y0393295D03*
X0251295Y0383295D03*
X0261295Y0383295D03*
D18*
X0241350Y0342531D03*
X0146232Y0320957D03*
D19*
X0146232Y0310957D03*
X0146232Y0300957D03*
X0146232Y0290957D03*
X0146232Y0280957D03*
X0146232Y0270957D03*
X0146232Y0260957D03*
X0146232Y0250957D03*
X0146232Y0240957D03*
X0146232Y0230957D03*
X0241350Y0352531D03*
D20*
X0390295Y0329295D03*
X0390295Y0319295D03*
X0390295Y0309295D03*
X0390295Y0299295D03*
X0390295Y0289295D03*
X0390295Y0279295D03*
X0390295Y0263295D03*
X0390295Y0253295D03*
X0390295Y0243295D03*
X0390295Y0233295D03*
X0390295Y0223295D03*
X0390295Y0213295D03*
D21*
X0401027Y0176339D02*
X0401027Y0174527D01*
X0397405Y0174527D01*
X0397405Y0176339D01*
X0401027Y0176339D01*
X0401027Y0176337D02*
X0397405Y0176337D01*
X0397405Y0168819D02*
X0397405Y0167007D01*
X0397405Y0168819D02*
X0401027Y0168819D01*
X0401027Y0167007D01*
X0397405Y0167007D01*
X0397405Y0168817D02*
X0401027Y0168817D01*
X0377882Y0137862D02*
X0376070Y0137862D01*
X0376070Y0141484D01*
X0377882Y0141484D01*
X0377882Y0137862D01*
X0377882Y0139672D02*
X0376070Y0139672D01*
X0376070Y0141482D02*
X0377882Y0141482D01*
X0370363Y0141484D02*
X0368551Y0141484D01*
X0370363Y0141484D02*
X0370363Y0137862D01*
X0368551Y0137862D01*
X0368551Y0141484D01*
X0368551Y0139672D02*
X0370363Y0139672D01*
X0370363Y0141482D02*
X0368551Y0141482D01*
X0176402Y0138712D02*
X0174590Y0138712D01*
X0174590Y0142334D01*
X0176402Y0142334D01*
X0176402Y0138712D01*
X0176402Y0140522D02*
X0174590Y0140522D01*
X0174590Y0142332D02*
X0176402Y0142332D01*
X0168882Y0142334D02*
X0167070Y0142334D01*
X0168882Y0142334D02*
X0168882Y0138712D01*
X0167070Y0138712D01*
X0167070Y0142334D01*
X0167070Y0140522D02*
X0168882Y0140522D01*
X0168882Y0142332D02*
X0167070Y0142332D01*
X0143925Y0166858D02*
X0143925Y0168670D01*
X0147547Y0168670D01*
X0147547Y0166858D01*
X0143925Y0166858D01*
X0143925Y0168668D02*
X0147547Y0168668D01*
X0147547Y0174377D02*
X0147547Y0176189D01*
X0147547Y0174377D02*
X0143925Y0174377D01*
X0143925Y0176189D01*
X0147547Y0176189D01*
X0147547Y0176187D02*
X0143925Y0176187D01*
X0247629Y0268106D02*
X0249441Y0268106D01*
X0249441Y0264484D01*
X0247629Y0264484D01*
X0247629Y0268106D01*
X0247629Y0266294D02*
X0249441Y0266294D01*
X0249441Y0268104D02*
X0247629Y0268104D01*
X0247629Y0276106D02*
X0249441Y0276106D01*
X0249441Y0272484D01*
X0247629Y0272484D01*
X0247629Y0276106D01*
X0247629Y0274294D02*
X0249441Y0274294D01*
X0249441Y0276104D02*
X0247629Y0276104D01*
X0247629Y0284106D02*
X0249441Y0284106D01*
X0249441Y0280484D01*
X0247629Y0280484D01*
X0247629Y0284106D01*
X0247629Y0282294D02*
X0249441Y0282294D01*
X0249441Y0284104D02*
X0247629Y0284104D01*
X0255149Y0280484D02*
X0256961Y0280484D01*
X0255149Y0280484D02*
X0255149Y0284106D01*
X0256961Y0284106D01*
X0256961Y0280484D01*
X0256961Y0282294D02*
X0255149Y0282294D01*
X0255149Y0284104D02*
X0256961Y0284104D01*
X0256961Y0272484D02*
X0255149Y0272484D01*
X0255149Y0276106D01*
X0256961Y0276106D01*
X0256961Y0272484D01*
X0256961Y0274294D02*
X0255149Y0274294D01*
X0255149Y0276104D02*
X0256961Y0276104D01*
X0256961Y0264484D02*
X0255149Y0264484D01*
X0255149Y0268106D01*
X0256961Y0268106D01*
X0256961Y0264484D01*
X0256961Y0266294D02*
X0255149Y0266294D01*
X0255149Y0268104D02*
X0256961Y0268104D01*
X0302815Y0295464D02*
X0302815Y0297276D01*
X0306437Y0297276D01*
X0306437Y0295464D01*
X0302815Y0295464D01*
X0302815Y0297274D02*
X0306437Y0297274D01*
X0310453Y0297276D02*
X0310453Y0295464D01*
X0310453Y0297276D02*
X0314075Y0297276D01*
X0314075Y0295464D01*
X0310453Y0295464D01*
X0310453Y0297274D02*
X0314075Y0297274D01*
X0318311Y0296969D02*
X0318311Y0295157D01*
X0318311Y0296969D02*
X0321933Y0296969D01*
X0321933Y0295157D01*
X0318311Y0295157D01*
X0318311Y0296967D02*
X0321933Y0296967D01*
X0321933Y0302676D02*
X0321933Y0304488D01*
X0321933Y0302676D02*
X0318311Y0302676D01*
X0318311Y0304488D01*
X0321933Y0304488D01*
X0321933Y0304486D02*
X0318311Y0304486D01*
X0314075Y0304796D02*
X0314075Y0302984D01*
X0310453Y0302984D01*
X0310453Y0304796D01*
X0314075Y0304796D01*
X0314075Y0304794D02*
X0310453Y0304794D01*
X0306437Y0304796D02*
X0306437Y0302984D01*
X0302815Y0302984D01*
X0302815Y0304796D01*
X0306437Y0304796D01*
X0306437Y0304794D02*
X0302815Y0304794D01*
X0331779Y0308082D02*
X0333591Y0308082D01*
X0333591Y0304460D01*
X0331779Y0304460D01*
X0331779Y0308082D01*
X0331779Y0306270D02*
X0333591Y0306270D01*
X0333591Y0308080D02*
X0331779Y0308080D01*
X0339299Y0304460D02*
X0341111Y0304460D01*
X0339299Y0304460D02*
X0339299Y0308082D01*
X0341111Y0308082D01*
X0341111Y0304460D01*
X0341111Y0306270D02*
X0339299Y0306270D01*
X0339299Y0308080D02*
X0341111Y0308080D01*
X0269772Y0344618D02*
X0267960Y0344618D01*
X0267960Y0348240D01*
X0269772Y0348240D01*
X0269772Y0344618D01*
X0269772Y0346428D02*
X0267960Y0346428D01*
X0267960Y0348238D02*
X0269772Y0348238D01*
X0262252Y0348240D02*
X0260440Y0348240D01*
X0262252Y0348240D02*
X0262252Y0344618D01*
X0260440Y0344618D01*
X0260440Y0348240D01*
X0260440Y0346428D02*
X0262252Y0346428D01*
X0262252Y0348238D02*
X0260440Y0348238D01*
X0138712Y0360614D02*
X0138712Y0362426D01*
X0142334Y0362426D01*
X0142334Y0360614D01*
X0138712Y0360614D01*
X0138712Y0362424D02*
X0142334Y0362424D01*
X0142334Y0368133D02*
X0142334Y0369945D01*
X0142334Y0368133D02*
X0138712Y0368133D01*
X0138712Y0369945D01*
X0142334Y0369945D01*
X0142334Y0369943D02*
X0138712Y0369943D01*
X0205755Y0403082D02*
X0207567Y0403082D01*
X0207567Y0399460D01*
X0205755Y0399460D01*
X0205755Y0403082D01*
X0205755Y0401270D02*
X0207567Y0401270D01*
X0207567Y0403080D02*
X0205755Y0403080D01*
X0213275Y0399460D02*
X0215087Y0399460D01*
X0213275Y0399460D02*
X0213275Y0403082D01*
X0215087Y0403082D01*
X0215087Y0399460D01*
X0215087Y0401270D02*
X0213275Y0401270D01*
X0213275Y0403080D02*
X0215087Y0403080D01*
X0168189Y0401468D02*
X0166377Y0401468D01*
X0166377Y0405090D01*
X0168189Y0405090D01*
X0168189Y0401468D01*
X0168189Y0403278D02*
X0166377Y0403278D01*
X0166377Y0405088D02*
X0168189Y0405088D01*
X0160670Y0405090D02*
X0158858Y0405090D01*
X0160670Y0405090D02*
X0160670Y0401468D01*
X0158858Y0401468D01*
X0158858Y0405090D01*
X0158858Y0403278D02*
X0160670Y0403278D01*
X0160670Y0405088D02*
X0158858Y0405088D01*
X0345984Y0404838D02*
X0347796Y0404838D01*
X0347796Y0401216D01*
X0345984Y0401216D01*
X0345984Y0404838D01*
X0345984Y0403026D02*
X0347796Y0403026D01*
X0347796Y0404836D02*
X0345984Y0404836D01*
X0353503Y0401216D02*
X0355315Y0401216D01*
X0353503Y0401216D02*
X0353503Y0404838D01*
X0355315Y0404838D01*
X0355315Y0401216D01*
X0355315Y0403026D02*
X0353503Y0403026D01*
X0353503Y0404836D02*
X0355315Y0404836D01*
X0370401Y0407059D02*
X0372213Y0407059D01*
X0372213Y0403437D01*
X0370401Y0403437D01*
X0370401Y0407059D01*
X0370401Y0405247D02*
X0372213Y0405247D01*
X0372213Y0407057D02*
X0370401Y0407057D01*
X0377921Y0403437D02*
X0379733Y0403437D01*
X0377921Y0403437D02*
X0377921Y0407059D01*
X0379733Y0407059D01*
X0379733Y0403437D01*
X0379733Y0405247D02*
X0377921Y0405247D01*
X0377921Y0407057D02*
X0379733Y0407057D01*
X0400878Y0382914D02*
X0400878Y0381102D01*
X0397256Y0381102D01*
X0397256Y0382914D01*
X0400878Y0382914D01*
X0400878Y0382912D02*
X0397256Y0382912D01*
X0397256Y0375394D02*
X0397256Y0373582D01*
X0397256Y0375394D02*
X0400878Y0375394D01*
X0400878Y0373582D01*
X0397256Y0373582D01*
X0397256Y0375392D02*
X0400878Y0375392D01*
D22*
X0222106Y0339523D03*
X0222106Y0329523D03*
D23*
X0293732Y0208043D03*
X0297472Y0208043D03*
X0302732Y0208043D03*
X0306472Y0208043D03*
X0311732Y0208043D03*
X0315472Y0208043D03*
X0320732Y0208043D03*
X0324472Y0208043D03*
D24*
X0299783Y0382051D03*
X0299783Y0408051D03*
D25*
X0278220Y0277118D03*
X0276527Y0277118D03*
X0274834Y0277118D03*
X0273142Y0277118D03*
X0271449Y0277118D03*
X0269756Y0277118D03*
X0268063Y0277118D03*
X0266370Y0277118D03*
X0266370Y0267472D03*
X0268063Y0267472D03*
X0269756Y0267472D03*
X0271449Y0267472D03*
X0273142Y0267472D03*
X0274834Y0267472D03*
X0276527Y0267472D03*
X0278220Y0267472D03*
D26*
X0278102Y0269756D03*
X0278102Y0271449D03*
X0278102Y0273142D03*
X0278102Y0274834D03*
X0266488Y0274834D03*
X0266488Y0273142D03*
X0266488Y0271449D03*
X0266488Y0269756D03*
D27*
G36*
X0138601Y0153091D02*
X0144168Y0158658D01*
X0149735Y0153091D01*
X0144168Y0147524D01*
X0138601Y0153091D01*
G37*
G36*
X0146953Y0144740D02*
X0152520Y0150307D01*
X0158087Y0144740D01*
X0152520Y0139173D01*
X0146953Y0144740D01*
G37*
G36*
X0392649Y0137538D02*
X0387082Y0143105D01*
X0392649Y0148672D01*
X0398216Y0143105D01*
X0392649Y0137538D01*
G37*
G36*
X0401000Y0145890D02*
X0395433Y0151457D01*
X0401000Y0157024D01*
X0406567Y0151457D01*
X0401000Y0145890D01*
G37*
G36*
X0407202Y0395680D02*
X0401635Y0390113D01*
X0396068Y0395680D01*
X0401635Y0401247D01*
X0407202Y0395680D01*
G37*
G36*
X0398850Y0404032D02*
X0393283Y0398465D01*
X0387716Y0404032D01*
X0393283Y0409599D01*
X0398850Y0404032D01*
G37*
G36*
X0147091Y0411414D02*
X0152658Y0405847D01*
X0147091Y0400280D01*
X0141524Y0405847D01*
X0147091Y0411414D01*
G37*
G36*
X0138740Y0403062D02*
X0144307Y0397495D01*
X0138740Y0391928D01*
X0133173Y0397495D01*
X0138740Y0403062D01*
G37*
D28*
X0160523Y0388379D03*
X0161736Y0182623D03*
X0373216Y0153573D03*
D29*
X0370216Y0164773D03*
X0376216Y0164773D03*
X0164736Y0171423D03*
X0158736Y0171423D03*
X0157523Y0377179D03*
X0163523Y0377179D03*
D30*
X0384167Y0382248D03*
D31*
X0372967Y0385248D03*
X0372967Y0379248D03*
D32*
X0317846Y0352425D03*
X0315878Y0352425D03*
X0313909Y0352425D03*
X0311941Y0352425D03*
X0309972Y0352425D03*
X0308004Y0352425D03*
X0306035Y0352425D03*
X0304067Y0352425D03*
X0302098Y0352425D03*
X0300130Y0352425D03*
X0298161Y0352425D03*
X0296193Y0352425D03*
X0294224Y0352425D03*
X0292256Y0352425D03*
X0290287Y0352425D03*
X0288319Y0352425D03*
X0288319Y0313992D03*
X0290287Y0313992D03*
X0292256Y0313992D03*
X0294224Y0313992D03*
X0296193Y0313992D03*
X0298161Y0313992D03*
X0300130Y0313992D03*
X0302098Y0313992D03*
X0304067Y0313992D03*
X0306035Y0313992D03*
X0308004Y0313992D03*
X0309972Y0313992D03*
X0311941Y0313992D03*
X0313909Y0313992D03*
X0315878Y0313992D03*
X0317846Y0313992D03*
D33*
X0322299Y0318445D03*
X0322299Y0320413D03*
X0322299Y0322382D03*
X0322299Y0324350D03*
X0322299Y0326319D03*
X0322299Y0328287D03*
X0322299Y0330256D03*
X0322299Y0332224D03*
X0322299Y0334193D03*
X0322299Y0336161D03*
X0322299Y0338130D03*
X0322299Y0340098D03*
X0322299Y0342067D03*
X0322299Y0344035D03*
X0322299Y0346004D03*
X0322299Y0347972D03*
X0283866Y0347972D03*
X0283866Y0346004D03*
X0283866Y0344035D03*
X0283866Y0342067D03*
X0283866Y0340098D03*
X0283866Y0338130D03*
X0283866Y0336161D03*
X0283866Y0334193D03*
X0283866Y0332224D03*
X0283866Y0330256D03*
X0283866Y0328287D03*
X0283866Y0326319D03*
X0283866Y0324350D03*
X0283866Y0322382D03*
X0283866Y0320413D03*
X0283866Y0318445D03*
D34*
X0225602Y0350201D03*
X0221862Y0350201D03*
X0218122Y0350201D03*
X0218122Y0360437D03*
X0225602Y0360437D03*
D35*
X0334153Y0339941D03*
X0343208Y0339941D03*
X0343208Y0325374D03*
X0334153Y0325374D03*
D36*
X0324295Y0361295D02*
X0305136Y0361295D01*
X0306968Y0363126D01*
X0306968Y0363332D01*
X0308631Y0363332D01*
X0309451Y0364152D01*
X0309451Y0366146D01*
X0309491Y0366186D01*
X0309728Y0366596D01*
X0309851Y0367054D01*
X0309851Y0367980D01*
X0306476Y0367980D01*
X0306476Y0367980D01*
X0309851Y0367980D01*
X0309851Y0368906D01*
X0309728Y0369364D01*
X0309491Y0369774D01*
X0309451Y0369815D01*
X0309451Y0371808D01*
X0308631Y0372628D01*
X0304321Y0372628D01*
X0303501Y0371808D01*
X0303501Y0369815D01*
X0303461Y0369774D01*
X0303224Y0369364D01*
X0303152Y0369094D01*
X0303152Y0369249D01*
X0303141Y0369260D01*
X0303152Y0369270D01*
X0303152Y0371808D01*
X0302332Y0372628D01*
X0301358Y0372628D01*
X0301172Y0372821D01*
X0299267Y0372857D01*
X0299030Y0372628D01*
X0298022Y0372628D01*
X0297922Y0372528D01*
X0297534Y0372528D01*
X0297534Y0374005D01*
X0299823Y0376294D01*
X0301170Y0377642D01*
X0301170Y0378651D01*
X0305363Y0378651D01*
X0306183Y0379471D01*
X0306183Y0384631D01*
X0306119Y0384695D01*
X0324295Y0384695D01*
X0324295Y0361295D01*
X0324295Y0361812D02*
X0305653Y0361812D01*
X0308709Y0363410D02*
X0324295Y0363410D01*
X0324295Y0365009D02*
X0309451Y0365009D01*
X0309731Y0366607D02*
X0324295Y0366607D01*
X0324295Y0368206D02*
X0309851Y0368206D01*
X0309461Y0369804D02*
X0324295Y0369804D01*
X0324295Y0371403D02*
X0309451Y0371403D01*
X0303501Y0371403D02*
X0303152Y0371403D01*
X0303152Y0369804D02*
X0303491Y0369804D01*
X0297534Y0373001D02*
X0324295Y0373001D01*
X0324295Y0374600D02*
X0298128Y0374600D01*
X0299727Y0376198D02*
X0324295Y0376198D01*
X0324295Y0377797D02*
X0301170Y0377797D01*
X0306108Y0379395D02*
X0324295Y0379395D01*
X0324295Y0380994D02*
X0306183Y0380994D01*
X0306183Y0382592D02*
X0324295Y0382592D01*
X0324295Y0384191D02*
X0306183Y0384191D01*
X0295674Y0378651D02*
X0295387Y0378364D01*
X0291875Y0378364D01*
X0290641Y0377131D01*
X0290570Y0377302D01*
X0290266Y0377757D01*
X0289879Y0378144D01*
X0289424Y0378448D01*
X0288919Y0378658D01*
X0288382Y0378764D01*
X0287223Y0378764D01*
X0287223Y0374432D01*
X0286697Y0374432D01*
X0286697Y0373906D01*
X0283034Y0373906D01*
X0283034Y0372078D01*
X0283141Y0371541D01*
X0283351Y0371036D01*
X0283655Y0370581D01*
X0284042Y0370194D01*
X0284474Y0369905D01*
X0284189Y0369787D01*
X0283734Y0369483D01*
X0283348Y0369096D01*
X0283044Y0368641D01*
X0282834Y0368135D01*
X0282727Y0367599D01*
X0282727Y0365771D01*
X0286390Y0365771D01*
X0286390Y0365245D01*
X0282727Y0365245D01*
X0282727Y0363417D01*
X0282834Y0362880D01*
X0283044Y0362375D01*
X0283348Y0361920D01*
X0283734Y0361533D01*
X0284090Y0361295D01*
X0280295Y0361295D01*
X0280295Y0376421D01*
X0280403Y0376421D01*
X0281745Y0376976D01*
X0282771Y0378003D01*
X0283327Y0379345D01*
X0283327Y0380797D01*
X0282771Y0382138D01*
X0281745Y0383165D01*
X0280403Y0383721D01*
X0280295Y0383721D01*
X0280295Y0384695D01*
X0293447Y0384695D01*
X0293383Y0384631D01*
X0293383Y0379471D01*
X0294203Y0378651D01*
X0295674Y0378651D01*
X0293459Y0379395D02*
X0283327Y0379395D01*
X0284042Y0378144D02*
X0283655Y0377757D01*
X0283351Y0377302D01*
X0283141Y0376797D01*
X0283034Y0376260D01*
X0283034Y0374432D01*
X0286697Y0374432D01*
X0286697Y0378764D01*
X0285539Y0378764D01*
X0285002Y0378658D01*
X0284497Y0378448D01*
X0284042Y0378144D01*
X0283694Y0377797D02*
X0282565Y0377797D01*
X0283034Y0376198D02*
X0280295Y0376198D01*
X0280295Y0374600D02*
X0283034Y0374600D01*
X0283034Y0373001D02*
X0280295Y0373001D01*
X0280295Y0371403D02*
X0283199Y0371403D01*
X0284232Y0369804D02*
X0280295Y0369804D01*
X0280295Y0368206D02*
X0282863Y0368206D01*
X0282727Y0366607D02*
X0280295Y0366607D01*
X0280295Y0365009D02*
X0282727Y0365009D01*
X0282729Y0363410D02*
X0280295Y0363410D01*
X0280295Y0361812D02*
X0283455Y0361812D01*
X0286390Y0365771D02*
X0286390Y0369574D01*
X0286697Y0369574D01*
X0286697Y0373906D01*
X0287223Y0373906D01*
X0287223Y0370103D01*
X0286916Y0370103D01*
X0286916Y0365771D01*
X0286390Y0365771D01*
X0286390Y0366607D02*
X0286916Y0366607D01*
X0286916Y0368206D02*
X0286390Y0368206D01*
X0286697Y0369804D02*
X0286916Y0369804D01*
X0286697Y0371403D02*
X0287223Y0371403D01*
X0287223Y0373001D02*
X0286697Y0373001D01*
X0286697Y0374600D02*
X0287223Y0374600D01*
X0287223Y0376198D02*
X0286697Y0376198D01*
X0286697Y0377797D02*
X0287223Y0377797D01*
X0290227Y0377797D02*
X0291307Y0377797D01*
X0293383Y0380994D02*
X0283245Y0380994D01*
X0282317Y0382592D02*
X0293383Y0382592D01*
X0293383Y0384191D02*
X0280295Y0384191D01*
X0290334Y0362546D02*
X0291568Y0361312D01*
X0295834Y0361312D01*
X0297227Y0362705D01*
X0297227Y0364128D01*
X0298022Y0363332D01*
X0298646Y0363332D01*
X0298646Y0361295D01*
X0289217Y0361295D01*
X0289572Y0361533D01*
X0289959Y0361920D01*
X0290263Y0362375D01*
X0290334Y0362546D01*
X0289851Y0361812D02*
X0291068Y0361812D01*
X0296333Y0361812D02*
X0298646Y0361812D01*
X0297944Y0363410D02*
X0297227Y0363410D01*
D37*
X0319295Y0365295D03*
X0319295Y0371295D03*
X0319295Y0377295D03*
X0315295Y0381295D03*
X0286295Y0382295D03*
D38*
X0281907Y0382295D01*
X0280982Y0383221D01*
X0280590Y0383221D01*
X0280295Y0383516D01*
X0261468Y0383516D01*
X0261295Y0383295D01*
X0258023Y0376626D02*
X0258023Y0359894D01*
X0259500Y0358417D01*
X0265405Y0358417D01*
X0265405Y0350543D01*
X0261468Y0346606D01*
X0261346Y0346429D01*
X0257039Y0350051D02*
X0260976Y0353988D01*
X0261425Y0354224D01*
X0265405Y0358417D02*
X0265405Y0358909D01*
X0268358Y0361862D01*
X0268520Y0362264D01*
X0268850Y0361862D01*
X0268850Y0359401D01*
X0292472Y0359401D01*
X0295917Y0355957D01*
X0295917Y0352512D01*
X0296193Y0352425D01*
X0298161Y0352425D02*
X0298378Y0352512D01*
X0298378Y0361295D01*
X0300346Y0357433D02*
X0301823Y0355957D01*
X0301823Y0352512D01*
X0302098Y0352425D01*
X0303791Y0352512D02*
X0304067Y0352425D01*
X0303791Y0352512D02*
X0303791Y0355957D01*
X0303299Y0356449D01*
X0303299Y0361862D01*
X0305268Y0363831D01*
X0305268Y0364323D01*
X0306252Y0365307D01*
X0306476Y0365421D01*
X0306252Y0361295D02*
X0306252Y0352512D01*
X0306035Y0352425D01*
X0306252Y0352020D01*
X0306252Y0348295D01*
X0306097Y0348450D01*
X0301174Y0348450D01*
X0300212Y0349412D01*
X0300212Y0352343D01*
X0300130Y0352425D01*
X0299854Y0352512D01*
X0298378Y0352512D01*
X0300346Y0357433D02*
X0300346Y0365307D01*
X0300177Y0365421D01*
X0299854Y0367768D02*
X0300177Y0367980D01*
X0299854Y0367768D02*
X0293949Y0367768D01*
X0293949Y0365799D01*
X0293701Y0365508D01*
X0279677Y0380071D02*
X0261960Y0362354D01*
X0261472Y0362264D01*
X0253594Y0356941D02*
X0253594Y0348575D01*
X0262453Y0339716D01*
X0261425Y0338634D01*
X0261468Y0338240D01*
X0261468Y0330366D01*
X0261425Y0329917D01*
X0261468Y0329874D01*
X0261468Y0328890D01*
X0265897Y0324460D01*
X0265897Y0311173D01*
X0266390Y0310681D01*
X0266425Y0310201D01*
X0266390Y0310189D01*
X0263437Y0307236D01*
X0263437Y0304775D01*
X0251134Y0292472D01*
X0251134Y0285090D01*
X0248673Y0282630D01*
X0248535Y0282295D01*
X0248673Y0282138D01*
X0248673Y0274756D01*
X0248535Y0274295D01*
X0248673Y0274264D01*
X0248673Y0266390D01*
X0248535Y0266295D01*
X0248673Y0265897D01*
X0248673Y0260976D01*
X0146311Y0260976D01*
X0146232Y0260957D01*
X0141882Y0256547D02*
X0141882Y0266882D01*
X0145819Y0270819D01*
X0146232Y0270957D01*
X0146311Y0271311D01*
X0154677Y0279677D01*
X0154677Y0367768D01*
X0154185Y0368260D01*
X0154185Y0381055D01*
X0164520Y0381055D01*
X0167472Y0384008D01*
X0167472Y0403201D01*
X0167283Y0403279D01*
X0192307Y0401271D02*
X0192571Y0401232D01*
X0197984Y0395819D01*
X0197984Y0365307D01*
X0177807Y0365307D01*
X0197984Y0365307D02*
X0197984Y0346114D01*
X0199460Y0344638D01*
X0208319Y0344638D01*
X0208319Y0345130D01*
X0222098Y0345130D01*
X0222098Y0350051D01*
X0221862Y0350201D01*
X0222098Y0345130D02*
X0222098Y0339716D01*
X0222106Y0339523D01*
X0208319Y0345130D02*
X0208319Y0348082D01*
X0208504Y0348374D01*
X0201921Y0348575D02*
X0201457Y0348374D01*
X0201921Y0348575D02*
X0201921Y0360386D01*
X0217669Y0360386D01*
X0218122Y0360437D01*
X0218161Y0360386D01*
X0223575Y0360386D01*
X0223575Y0357433D01*
X0224067Y0356941D01*
X0253594Y0356941D01*
X0241783Y0360386D02*
X0241783Y0373673D01*
X0214224Y0401232D01*
X0214181Y0401271D01*
X0206661Y0401271D02*
X0206350Y0401232D01*
X0200937Y0401232D01*
X0200535Y0401271D01*
X0251295Y0383295D02*
X0251626Y0383023D01*
X0258023Y0376626D01*
X0268472Y0354224D02*
X0268850Y0353988D01*
X0271803Y0351035D01*
X0271803Y0349067D01*
X0279677Y0349067D01*
X0279677Y0343161D01*
X0280661Y0342177D01*
X0283614Y0342177D01*
X0283866Y0342067D01*
X0284106Y0341685D01*
X0287551Y0341685D01*
X0288043Y0341193D01*
X0306252Y0341193D01*
X0306252Y0342177D01*
X0306252Y0348295D01*
X0306252Y0342177D02*
X0322000Y0342177D01*
X0322299Y0342067D01*
X0322492Y0340208D02*
X0322299Y0340098D01*
X0322492Y0340208D02*
X0325445Y0340208D01*
X0326429Y0341193D01*
X0326429Y0342669D01*
X0333811Y0350051D01*
X0333890Y0350334D01*
X0333319Y0346606D02*
X0330858Y0344145D01*
X0330858Y0336271D01*
X0322492Y0336271D01*
X0322299Y0336161D01*
X0322000Y0335779D01*
X0318555Y0335779D01*
X0318063Y0335287D01*
X0318063Y0330366D01*
X0322000Y0330366D01*
X0322299Y0330256D01*
X0322492Y0331842D02*
X0322299Y0332224D01*
X0322492Y0331842D02*
X0343653Y0331842D01*
X0343653Y0329874D01*
X0343653Y0325445D01*
X0343208Y0325374D01*
X0343653Y0329874D02*
X0352020Y0329874D01*
X0352208Y0330354D01*
X0356449Y0329382D02*
X0389913Y0329382D01*
X0390295Y0329295D01*
X0356449Y0329382D02*
X0356449Y0327413D01*
X0352512Y0323476D01*
X0352208Y0323307D01*
X0356449Y0329382D02*
X0356449Y0340701D01*
X0352512Y0344638D01*
X0352413Y0344716D01*
X0352020Y0345130D01*
X0352020Y0350051D01*
X0341193Y0350051D01*
X0340937Y0350334D01*
X0340701Y0350543D01*
X0324953Y0366291D01*
X0324295Y0366291D01*
X0344638Y0370228D02*
X0344638Y0393358D01*
X0353988Y0402708D01*
X0354409Y0403027D01*
X0346890Y0403027D02*
X0346606Y0403201D01*
X0342177Y0403201D01*
X0341764Y0403027D01*
X0333811Y0403201D02*
X0333535Y0403027D01*
X0333319Y0402708D01*
X0325445Y0394834D01*
X0325445Y0385484D01*
X0324953Y0384992D01*
X0324295Y0384695D01*
X0333811Y0403201D02*
X0333811Y0409106D01*
X0373181Y0409106D01*
X0374165Y0408122D01*
X0374165Y0405661D01*
X0378594Y0405661D01*
X0378827Y0405248D01*
X0378594Y0405169D01*
X0378594Y0397295D01*
X0378590Y0397248D01*
X0399067Y0374488D02*
X0398771Y0374165D01*
X0390405Y0365799D01*
X0386960Y0365799D01*
X0340937Y0350334D02*
X0340701Y0350051D01*
X0340701Y0346606D01*
X0333319Y0346606D01*
X0334153Y0339941D02*
X0334303Y0339716D01*
X0334303Y0335287D01*
X0334303Y0334303D01*
X0322492Y0334303D01*
X0322299Y0334193D01*
X0322000Y0337748D02*
X0316586Y0337748D01*
X0316586Y0327413D01*
X0311665Y0322492D01*
X0310681Y0323476D01*
X0310681Y0323968D01*
X0311665Y0322492D02*
X0310189Y0321016D01*
X0310189Y0314126D01*
X0309972Y0313992D01*
X0308004Y0313992D02*
X0307728Y0314126D01*
X0307728Y0317571D01*
X0307236Y0318063D01*
X0307236Y0332827D01*
X0313142Y0338732D01*
X0322000Y0337748D02*
X0322299Y0338130D01*
X0334303Y0335287D02*
X0346114Y0335287D01*
X0346606Y0335779D01*
X0346606Y0337256D01*
X0352020Y0337256D01*
X0352413Y0337669D01*
X0322299Y0328287D02*
X0322000Y0327905D01*
X0317079Y0327905D01*
X0316586Y0327413D01*
X0322299Y0322382D02*
X0322492Y0322000D01*
X0325937Y0322000D01*
X0330366Y0317571D01*
X0330366Y0308712D01*
X0332334Y0306744D01*
X0332685Y0306271D01*
X0332334Y0306252D01*
X0332334Y0291488D01*
X0330858Y0288043D02*
X0330858Y0286075D01*
X0330858Y0288043D02*
X0333811Y0288043D01*
X0335779Y0290012D01*
X0335779Y0310189D01*
X0341685Y0310189D01*
X0343161Y0308712D01*
X0343161Y0216685D01*
X0323968Y0197492D01*
X0323968Y0153201D01*
X0355957Y0153201D01*
X0369244Y0139913D01*
X0369457Y0139673D01*
X0390216Y0175197D02*
X0390405Y0175346D01*
X0390405Y0213240D01*
X0390295Y0213295D01*
X0340208Y0215701D02*
X0326921Y0202413D01*
X0291488Y0202413D01*
X0291488Y0213240D01*
X0299854Y0221606D01*
X0311665Y0221606D01*
X0311665Y0208319D01*
X0311732Y0208043D01*
X0315472Y0208043D02*
X0315602Y0208319D01*
X0315602Y0214224D01*
X0320523Y0214716D02*
X0312157Y0223082D01*
X0312157Y0288535D01*
X0304775Y0295917D01*
X0304626Y0296370D01*
X0307728Y0299362D02*
X0298870Y0299362D01*
X0298870Y0297886D01*
X0298870Y0292472D01*
X0297394Y0290996D01*
X0289775Y0296819D02*
X0287551Y0296901D01*
X0287551Y0286567D01*
X0287819Y0286295D01*
X0287551Y0286567D02*
X0283614Y0282630D01*
X0284598Y0281645D01*
X0284598Y0281153D01*
X0283614Y0282630D02*
X0278201Y0277216D01*
X0278220Y0277118D01*
X0278201Y0276724D01*
X0278201Y0275248D01*
X0278102Y0274834D01*
X0278201Y0274756D01*
X0278201Y0273279D01*
X0278102Y0273142D01*
X0278201Y0272787D01*
X0278201Y0271803D01*
X0278102Y0271449D01*
X0278201Y0271311D01*
X0278201Y0269834D01*
X0278102Y0269756D01*
X0278220Y0267472D02*
X0278201Y0267374D01*
X0278201Y0266390D01*
X0277216Y0265405D01*
X0269834Y0265405D01*
X0269834Y0267374D01*
X0269756Y0267472D01*
X0269342Y0267866D01*
X0268358Y0267866D01*
X0268063Y0267472D01*
X0267866Y0267866D01*
X0266390Y0267866D01*
X0266370Y0267472D01*
X0266390Y0267374D01*
X0259008Y0259992D01*
X0248673Y0259992D01*
X0248673Y0260976D01*
X0256055Y0266295D02*
X0256055Y0269342D01*
X0266390Y0269342D01*
X0266488Y0269756D01*
X0266390Y0271311D02*
X0266488Y0271449D01*
X0266390Y0271311D02*
X0256055Y0271311D01*
X0256055Y0274295D01*
X0256055Y0274756D01*
X0252610Y0278201D01*
X0252610Y0291980D01*
X0259992Y0291980D01*
X0256055Y0288535D02*
X0256055Y0282295D01*
X0256055Y0282138D01*
X0259008Y0279185D01*
X0259008Y0275248D01*
X0266390Y0275248D01*
X0266488Y0274834D01*
X0266882Y0273279D02*
X0266488Y0273142D01*
X0266882Y0273279D02*
X0268358Y0273279D01*
X0268358Y0267866D01*
X0268358Y0273279D02*
X0269834Y0273279D01*
X0269834Y0276724D01*
X0269756Y0277118D01*
X0269834Y0277216D01*
X0271311Y0277216D01*
X0271449Y0277118D01*
X0273142Y0277118D02*
X0273279Y0277216D01*
X0273279Y0281153D01*
X0270327Y0284106D01*
X0270327Y0288535D01*
X0271803Y0290012D01*
X0280661Y0290012D01*
X0280661Y0286567D01*
X0280771Y0286295D01*
X0274756Y0285582D02*
X0274756Y0277216D01*
X0274834Y0277118D01*
X0275248Y0277216D01*
X0276232Y0277216D01*
X0276527Y0277118D01*
X0276724Y0277216D01*
X0278201Y0277216D01*
X0268063Y0277118D02*
X0267866Y0277216D01*
X0267866Y0285090D01*
X0266882Y0286075D01*
X0266771Y0286295D01*
X0263437Y0280169D02*
X0263437Y0304283D01*
X0281645Y0304283D01*
X0281744Y0303866D01*
X0282138Y0304283D01*
X0289520Y0304283D01*
X0289775Y0303866D01*
X0290012Y0304283D01*
X0290012Y0307728D01*
X0294441Y0307728D01*
X0293949Y0303791D02*
X0293949Y0301823D01*
X0295425Y0301823D01*
X0293949Y0301823D02*
X0293949Y0280169D01*
X0270327Y0256547D01*
X0141882Y0256547D01*
X0140405Y0275248D02*
X0145819Y0280661D01*
X0146232Y0280957D01*
X0140405Y0275248D02*
X0140405Y0180268D01*
X0145327Y0175346D01*
X0145736Y0175283D01*
X0173870Y0197000D02*
X0177807Y0197000D01*
X0173870Y0197000D02*
X0173870Y0150740D01*
X0174854Y0149756D01*
X0175260Y0149523D01*
X0175346Y0149264D01*
X0175346Y0140897D01*
X0175496Y0140523D01*
X0173870Y0197000D02*
X0173870Y0203397D01*
X0146311Y0230957D01*
X0146232Y0230957D01*
X0263437Y0280169D02*
X0266390Y0277216D01*
X0266370Y0277118D01*
X0273819Y0286295D02*
X0274264Y0286075D01*
X0274756Y0285582D01*
X0281744Y0296819D02*
X0282138Y0296901D01*
X0287551Y0296901D01*
X0289520Y0296901D01*
X0289775Y0296819D01*
X0293949Y0303791D02*
X0304283Y0303791D01*
X0304626Y0303890D01*
X0305760Y0307728D02*
X0305760Y0313634D01*
X0306035Y0313992D01*
X0304283Y0314126D02*
X0304067Y0313992D01*
X0304283Y0314126D02*
X0304283Y0321016D01*
X0304775Y0321508D01*
X0304775Y0329382D01*
X0303791Y0330366D01*
X0299362Y0326921D02*
X0299362Y0334795D01*
X0295917Y0328397D02*
X0295917Y0314126D01*
X0296193Y0313992D01*
X0297886Y0314126D02*
X0298161Y0313992D01*
X0297886Y0314126D02*
X0297886Y0325445D01*
X0299362Y0326921D01*
X0301331Y0322984D02*
X0300346Y0322000D01*
X0300346Y0314126D01*
X0300130Y0313992D01*
X0299854Y0307728D02*
X0305760Y0307728D01*
X0312157Y0303791D02*
X0312264Y0303890D01*
X0312157Y0303791D02*
X0307728Y0299362D01*
X0312264Y0296370D02*
X0312649Y0295917D01*
X0315602Y0292964D01*
X0315602Y0230464D01*
X0303299Y0218161D02*
X0302807Y0217669D01*
X0302807Y0208319D01*
X0302732Y0208043D01*
X0306472Y0208043D02*
X0306744Y0208319D01*
X0306744Y0214224D01*
X0297394Y0214224D02*
X0297394Y0208319D01*
X0297472Y0208043D01*
X0293949Y0207827D02*
X0293732Y0208043D01*
X0293949Y0207827D02*
X0293949Y0203890D01*
X0326429Y0203890D01*
X0327905Y0205366D01*
X0327905Y0215701D01*
X0327413Y0216193D01*
X0327413Y0289027D01*
X0320523Y0295917D01*
X0320122Y0296063D01*
X0320122Y0303582D02*
X0320523Y0303791D01*
X0328890Y0303791D01*
X0328890Y0288043D01*
X0330858Y0288043D01*
X0328890Y0303791D02*
X0328890Y0317079D01*
X0325937Y0320031D01*
X0322492Y0320031D01*
X0322299Y0320413D01*
X0322299Y0318445D02*
X0322492Y0318063D01*
X0322492Y0317079D01*
X0324953Y0314618D01*
X0321508Y0310681D02*
X0321508Y0309697D01*
X0317079Y0309697D01*
X0316094Y0310681D01*
X0316094Y0313634D01*
X0315878Y0313992D01*
X0314126Y0313634D02*
X0313909Y0313992D01*
X0314126Y0313634D02*
X0314126Y0310681D01*
X0317571Y0307236D01*
X0325445Y0307236D01*
X0340205Y0306271D02*
X0340208Y0306252D01*
X0340208Y0215701D01*
X0324460Y0214224D02*
X0324460Y0208319D01*
X0324472Y0208043D01*
X0320732Y0208043D02*
X0320523Y0208319D01*
X0320523Y0214716D01*
X0390405Y0175346D02*
X0398771Y0175346D01*
X0399216Y0175433D01*
X0263437Y0304283D02*
X0263437Y0304775D01*
X0273472Y0310201D02*
X0273279Y0310681D01*
X0269342Y0314618D01*
X0269342Y0329382D01*
X0268850Y0329874D01*
X0268472Y0329917D01*
X0268358Y0330366D01*
X0268358Y0338240D01*
X0268472Y0338634D01*
X0268850Y0338732D01*
X0271803Y0341685D01*
X0271803Y0349067D01*
X0268866Y0346429D02*
X0268850Y0346114D01*
X0262453Y0339716D01*
X0261468Y0338732D01*
X0261425Y0338634D01*
X0275248Y0345622D02*
X0280661Y0340208D01*
X0283614Y0340208D01*
X0283866Y0340098D01*
X0284106Y0339716D01*
X0284106Y0338240D01*
X0283866Y0338130D01*
X0283614Y0336271D02*
X0277708Y0336271D01*
X0277708Y0331842D02*
X0277708Y0330858D01*
X0277708Y0331842D02*
X0283614Y0331842D01*
X0283866Y0332224D01*
X0283866Y0330256D02*
X0284106Y0329874D01*
X0290012Y0329874D01*
X0288043Y0334303D02*
X0288043Y0341193D01*
X0283866Y0336161D02*
X0283614Y0336271D01*
X0284106Y0334303D02*
X0283866Y0334193D01*
X0284106Y0334303D02*
X0288043Y0334303D01*
X0283866Y0328287D02*
X0283614Y0327905D01*
X0279677Y0327905D01*
X0274264Y0322492D01*
X0274264Y0316094D01*
X0279677Y0312157D02*
X0282630Y0309205D01*
X0279677Y0312157D02*
X0279677Y0325937D01*
X0283614Y0325937D01*
X0283866Y0326319D01*
X0290012Y0320031D02*
X0290012Y0318063D01*
X0289027Y0318063D01*
X0288535Y0317571D01*
X0288535Y0314126D01*
X0288319Y0313992D01*
X0290012Y0313634D02*
X0290287Y0313992D01*
X0290012Y0313634D02*
X0290012Y0307728D01*
X0292256Y0313992D02*
X0291980Y0314126D01*
X0291980Y0318063D01*
X0290012Y0318063D01*
X0312157Y0318063D02*
X0312157Y0314126D01*
X0311941Y0313992D01*
X0312157Y0318063D02*
X0314126Y0320031D01*
X0144834Y0365307D02*
X0144342Y0365307D01*
X0144342Y0373181D01*
X0140897Y0376626D01*
X0140523Y0376756D01*
X0144342Y0365307D02*
X0140897Y0361862D01*
X0140523Y0361520D01*
D39*
X0144834Y0365307D03*
X0159598Y0361862D03*
X0144834Y0354972D03*
X0171901Y0338732D03*
X0177807Y0365307D03*
X0241783Y0360386D03*
X0257039Y0350051D03*
X0275248Y0345622D03*
X0277708Y0336271D03*
X0277708Y0330858D03*
X0290012Y0329874D03*
X0295917Y0328397D03*
X0299362Y0334795D03*
X0303791Y0330366D03*
X0301331Y0322984D03*
X0310681Y0323968D03*
X0314126Y0320031D03*
X0321508Y0310681D03*
X0324953Y0314618D03*
X0325445Y0307236D03*
X0299854Y0307728D03*
X0294441Y0307728D03*
X0295425Y0301823D03*
X0298870Y0297886D03*
X0297394Y0290996D03*
X0284598Y0281153D03*
X0308220Y0275248D03*
X0330858Y0286075D03*
X0332334Y0291488D03*
X0282630Y0309205D03*
X0274264Y0316094D03*
X0265897Y0324460D03*
X0290012Y0320031D03*
X0313142Y0338732D03*
X0344638Y0370228D03*
X0373673Y0360878D03*
X0379086Y0361862D03*
X0386960Y0365799D03*
X0388437Y0399264D03*
X0279677Y0380071D03*
X0134008Y0402708D03*
X0259992Y0291980D03*
X0256055Y0288535D03*
X0315602Y0230464D03*
X0303299Y0218161D03*
X0306744Y0214224D03*
X0315602Y0214224D03*
X0324460Y0214224D03*
X0297394Y0214224D03*
X0382039Y0175346D03*
X0370720Y0170917D03*
X0363338Y0159598D03*
X0389913Y0151724D03*
X0405661Y0156645D03*
X0189618Y0165996D03*
X0153693Y0171409D03*
X0153201Y0156645D03*
X0177807Y0197000D03*
D40*
X0136960Y0158614D02*
X0136960Y0137453D01*
X0153201Y0137453D01*
X0155661Y0139913D01*
X0167472Y0139913D01*
X0167976Y0140523D01*
X0167964Y0140897D01*
X0167964Y0149264D01*
X0168212Y0149523D01*
X0157138Y0160090D02*
X0153447Y0156399D01*
X0153201Y0156645D01*
X0153447Y0156399D02*
X0152708Y0155661D01*
X0152708Y0144834D01*
X0152520Y0144740D01*
X0144342Y0153201D02*
X0144168Y0153091D01*
X0144342Y0153201D02*
X0153201Y0162059D01*
X0153201Y0162551D01*
X0155661Y0165012D01*
X0164520Y0165012D01*
X0165012Y0165504D01*
X0165012Y0171409D01*
X0164736Y0171423D01*
X0165012Y0165504D02*
X0169933Y0160582D01*
X0170291Y0160523D01*
X0181760Y0166169D02*
X0182236Y0165996D01*
X0189618Y0165996D01*
X0205858Y0166488D02*
X0206327Y0166169D01*
X0205858Y0166488D02*
X0205858Y0181252D01*
X0146311Y0240799D01*
X0146232Y0240957D01*
X0159106Y0182236D02*
X0161567Y0182236D01*
X0161736Y0182623D01*
X0159106Y0182236D02*
X0149756Y0172886D01*
X0149756Y0171901D01*
X0145819Y0167964D01*
X0145736Y0167764D01*
X0145327Y0166980D01*
X0136960Y0158614D01*
X0157138Y0160090D02*
X0157181Y0160523D01*
X0158614Y0171409D02*
X0158736Y0171423D01*
X0158614Y0171409D02*
X0153693Y0171409D01*
X0329760Y0159169D02*
X0329874Y0159598D01*
X0362846Y0192571D01*
X0380563Y0192571D01*
X0380563Y0175838D01*
X0382039Y0175346D01*
X0377610Y0175346D01*
X0377216Y0175118D01*
X0370720Y0170917D02*
X0370228Y0170917D01*
X0370228Y0181252D01*
X0377118Y0188142D01*
X0377216Y0188228D01*
X0370228Y0170917D02*
X0370228Y0165012D01*
X0370216Y0164773D01*
X0374165Y0162551D02*
X0374165Y0161567D01*
X0372197Y0159598D01*
X0363338Y0159598D01*
X0354480Y0159598D01*
X0354327Y0159169D01*
X0373216Y0153573D02*
X0374165Y0152708D01*
X0389421Y0167964D01*
X0390216Y0168149D01*
X0390405Y0167964D01*
X0398771Y0167964D01*
X0399216Y0167913D01*
X0376216Y0164773D02*
X0376134Y0164520D01*
X0374165Y0162551D01*
X0373216Y0153573D02*
X0373673Y0153201D01*
X0373673Y0142866D01*
X0376626Y0139913D01*
X0376976Y0139673D01*
X0389913Y0145819D02*
X0389913Y0151724D01*
X0389913Y0145819D02*
X0392374Y0143358D01*
X0392649Y0143105D01*
X0401000Y0151457D02*
X0401232Y0151724D01*
X0405661Y0156153D01*
X0405661Y0156645D01*
X0242208Y0329827D02*
X0241783Y0329874D01*
X0241783Y0342177D01*
X0241350Y0342531D01*
X0241291Y0352512D02*
X0226035Y0352512D01*
X0225602Y0350201D01*
X0225543Y0350543D01*
X0225543Y0354480D01*
X0220130Y0354480D01*
X0219145Y0353496D01*
X0219145Y0351527D01*
X0218161Y0350543D01*
X0218122Y0350201D01*
X0209165Y0339681D02*
X0208811Y0338732D01*
X0204874Y0334795D01*
X0165996Y0334795D01*
X0165996Y0344638D01*
X0165327Y0345169D01*
X0165012Y0345622D01*
X0159598Y0351035D01*
X0159598Y0361862D01*
X0159598Y0375149D01*
X0157630Y0377118D01*
X0157523Y0377179D01*
X0163523Y0377179D02*
X0164027Y0377610D01*
X0170917Y0384500D01*
X0170917Y0407630D01*
X0157630Y0407630D01*
X0156645Y0406645D01*
X0156645Y0406153D01*
X0147295Y0406153D01*
X0147091Y0405847D01*
X0138740Y0397495D02*
X0138437Y0397787D01*
X0134008Y0402216D01*
X0134008Y0402708D01*
X0159764Y0403279D02*
X0160090Y0403201D01*
X0160090Y0388437D01*
X0160523Y0388379D01*
X0159598Y0387945D01*
X0159598Y0384008D01*
X0141390Y0384008D01*
X0140523Y0383803D01*
X0140405Y0383516D01*
X0135976Y0379086D01*
X0135976Y0373673D01*
X0140405Y0369244D01*
X0140523Y0369039D01*
X0144834Y0359894D02*
X0144834Y0354972D01*
X0144834Y0349559D01*
X0140897Y0345622D01*
X0140760Y0345169D01*
X0171901Y0339224D02*
X0171901Y0338732D01*
X0171901Y0339224D02*
X0201921Y0339224D01*
X0202118Y0339681D01*
X0209165Y0339681D02*
X0209303Y0339224D01*
X0218653Y0329874D01*
X0222098Y0329874D01*
X0222106Y0329523D01*
X0222590Y0329874D01*
X0231941Y0329874D01*
X0232208Y0329827D01*
X0241291Y0352512D02*
X0241350Y0352531D01*
X0294441Y0370228D02*
X0294441Y0374165D01*
X0294008Y0374169D01*
X0294933Y0374657D01*
X0298870Y0378594D01*
X0298870Y0381547D01*
X0299362Y0382039D01*
X0299783Y0382051D01*
X0300177Y0370539D02*
X0299854Y0370228D01*
X0294441Y0370228D01*
X0368260Y0373673D02*
X0379579Y0362354D01*
X0379086Y0361862D01*
X0379579Y0362354D02*
X0390405Y0351527D01*
X0403201Y0351527D01*
X0403327Y0351169D01*
X0378760Y0351169D02*
X0378594Y0351527D01*
X0378594Y0355957D01*
X0373673Y0360878D01*
X0368752Y0365799D01*
X0368512Y0366248D01*
X0368260Y0373673D02*
X0368260Y0384992D01*
X0372689Y0384992D01*
X0372967Y0385248D01*
X0372967Y0379248D02*
X0373181Y0379086D01*
X0373181Y0374657D01*
X0381547Y0366291D01*
X0381622Y0366248D01*
X0381547Y0367275D01*
X0389913Y0375642D01*
X0389913Y0378102D01*
X0401724Y0378102D01*
X0403693Y0380071D01*
X0403693Y0393358D01*
X0401724Y0395327D01*
X0401635Y0395680D01*
X0392866Y0403693D02*
X0388437Y0399264D01*
X0392866Y0403693D02*
X0393283Y0404032D01*
X0384008Y0384992D02*
X0372197Y0396803D01*
X0371543Y0397248D01*
X0371212Y0397295D01*
X0371212Y0405169D01*
X0371307Y0405248D01*
X0384008Y0384992D02*
X0384008Y0383023D01*
X0384167Y0382248D01*
X0384500Y0382039D01*
X0398771Y0382039D01*
X0399067Y0382008D01*
X0164079Y0366279D02*
X0164027Y0366291D01*
X0163535Y0366783D01*
X0163535Y0377118D01*
X0163523Y0377179D01*
X0150968Y0366279D02*
X0150740Y0365799D01*
X0144834Y0359894D01*
M02*
