%
M48
M72
T01C0.01500
T02C0.02362
T03C0.03937
T04C0.04000
T05C0.04331
T06C0.05512
%
T01
X153201Y156645
X153693Y171409
X189618Y165996
X177807Y197000
X297394Y214224
X303299Y218161
X306744Y214224
X315602Y214224
X324460Y214224
X315602Y230464
X308220Y275248
X284598Y281153
X297394Y290996
X298870Y297886
X295425Y301823
X294441Y307728
X299854Y307728
X282630Y309205
X274264Y316094
X265897Y324460
X277708Y330858
X277708Y336271
X290012Y329874
X295917Y328397
X299362Y334795
X303791Y330366
X301331Y322984
X310681Y323968
X314126Y320031
X321508Y310681
X324953Y314618
X325445Y307236
X332334Y291488
X330858Y286075
X259992Y291980
X256055Y288535
X290012Y320031
X313142Y338732
X275248Y345622
X257039Y350051
X241783Y360386
X279677Y380071
X344638Y370228
X373673Y360878
X379086Y361862
X386960Y365799
X388437Y399264
X177807Y365307
X159598Y361862
X144834Y365307
X144834Y354972
X171901Y338732
X134008Y402708
X382039Y175346
X370720Y170917
X363338Y159598
X389913Y151724
X405661Y156645
T02
X319295Y365295
X319295Y371295
X319295Y377295
X315295Y381295
X286295Y382295
T03
X242208Y329827
X232208Y329827
T04
X251295Y383295
X261295Y383295
X261295Y393295
X251295Y393295
X251295Y403295
X261295Y403295
X390295Y329295
X390295Y319295
X390295Y309295
X390295Y299295
X390295Y289295
X390295Y279295
X390295Y263295
X390295Y253295
X390295Y243295
X390295Y233295
X390295Y223295
X390295Y213295
T05
X146232Y230957
X146232Y240957
X146232Y250957
X146232Y260957
X146232Y270957
X146232Y280957
X146232Y290957
X146232Y300957
X146232Y310957
X146232Y320957
X241350Y342531
X241350Y352531
T06
X261145Y319768
X203271Y319768
X203271Y224886
X261145Y224886
M30
